<?xml version="1.0" encoding="utf-8"?>
<!-- Generator: Adobe Illustrator 27.9.0, SVG Export Plug-In . SVG Version: 6.00 Build 0)  -->
<svg version="1.1" id="Camada_2_00000003789412202897732450000009578718767225503108_"
	 xmlns="http://www.w3.org/2000/svg" xmlns:xlink="http://www.w3.org/1999/xlink" x="0px" y="0px" viewBox="0 0 944.2 944.6"
	 style="enable-background:new 0 0 944.2 944.6;" xml:space="preserve">
<style type="text/css">
	.st0{clip-path:url(#SVGID_00000127025816189623972600000002408381233039589019_);}
	.st1{fill:#FFFFFF;}
</style>
<g>
	<defs>
		<circle id="SVGID_1_" cx="472.1" cy="472.3" r="472.1"/>
	</defs>
	<use xlink:href="#SVGID_1_"  style="overflow:visible;"/>
	<clipPath id="SVGID_00000070829720720238554760000017063506220291737238_">
		<use xlink:href="#SVGID_1_"  style="overflow:visible;"/>
	</clipPath>
	<g style="clip-path:url(#SVGID_00000070829720720238554760000017063506220291737238_);">
		<path class="st1" d="M67.8,849.9c8.1-2.8,15.6-6.7,23.4-10.1c17.2-8.9,34.1-18.5,51.1-27.8c2.9-1.5,5.7-3.1,8.3-5.1
			c-8.3,3.3-16.1,7.9-24.3,11.5c-16.2,7.9-32.5,15.8-48.4,24.4C74.4,844.9,70.6,846.8,67.8,849.9z"/>
		<path class="st1" d="M288.4,792.1c-1.2,5.5-0.7,11.6,2.2,16.6c2,3.3,5.2,6.2,9.2,6.5c-1-3.2-2.4-6.3-3.5-9.5
			c-1.9-5.2-1.2-10.9-1.2-16.3C292.8,789.7,289.1,789.1,288.4,792.1z"/>
		<path class="st1" d="M50.6,893.8c8.3-3.8,15.8-9.1,24-13.3c14.5-7.5,27.7-17.5,42.3-25.1c12-6.6,23.6-14.1,35.4-20.9
			c15.8-9,31.7-17.9,47.2-27.3c12.6-8,25.8-15.1,40.2-19.1c1.3-0.4,2.4-1.1,3.6-1.6c-3.6,0.4-7.3,0.4-10.9,0.8
			c-5.3,0.9-10.2,3.2-15,5.5c-25.7,12.7-50.6,27.2-74.8,42.7c-13.8,9.2-28.6,16.8-42.7,25.5c-7.8,4.6-15.2,10-22.9,14.8
			c-7.5,4.7-15.1,9.4-22.3,14.4C53.1,891.3,51.8,892.5,50.6,893.8z"/>
		<path class="st1" d="M155.5,786.1c-6.9,1.8-13.4,4.8-20.1,7.3c-9.4,3.9-19.2,7.5-28.1,12.6c4.4-0.5,8.5-2.2,12.7-3.9
			c8.2-3.3,16.2-7.1,24.3-10.7C148.1,789.9,152.2,788.6,155.5,786.1z"/>
		<path class="st1" d="M439.4,777.3c-8.7,0.8-17.4,1.2-26.1,0.4c2.4,1.7,5.5,1.3,8.3,1.6c10.1,1.2,20.4,0.6,30.5,0.5
			c7.9-0.8,16-0.4,23.5-3.2C463.5,775.4,451.5,777.5,439.4,777.3z"/>
		<path class="st1" d="M478.9,761.6c-5.8-0.6-11.6-0.3-17.4-0.7c-12.7-0.9-25.4-0.1-38.1,0.3c-9.9-0.2-19.6,1-29.5,1
			c1,2.2,1.7,4.6,3.4,6.3c2.9,1.1,6,0.6,9.1,0.8c13.1-0.2,26.3,0.2,39.5-0.4c10.4-0.3,20.9-0.7,31.4-0.5c6.3,0.1,12.6-0.9,18.9-1
			c-0.7-1.9-1.3-3.8-1.9-5.6C489.1,762,484,762.2,478.9,761.6z"/>
		<path class="st1" d="M692.3,789.8c-8.5-5.4-17.4-10-26.2-14.9c-13.5-6.4-28.3-9.4-42.9-11.9c-16-2.7-32.2-3.6-48.4-4.6
			c-11.5,0.1-23-0.4-34.4,0.6c-5.9,0.5-11.8,0.1-17.8,0.4c0.4,2.2,0.6,4.4,1.5,6.5c2.6,1.1,5.7,0.4,8.5,0.5c17,0.2,34.1-0.5,51,0.8
			c31.5,2,63.3,7.6,92.1,21.2c7.6,3.7,15.1,8,22.8,11.6C696.7,796.5,696,792,692.3,789.8z"/>
		<path class="st1" d="M368.7,769.1c-0.1-2.3-0.1-4.7-0.1-7c-8.6-0.6-17.3,0.8-25.9,0.7c-5.7-0.1-11.4,0.9-17,0.9
			c-6.6,0.2-13.4,1.8-19.9,0.3c-4.3-1.5-8.7-3.6-11.8-7.2c-4.1-4.8-4.3-11.6-4.3-17.6c-10.5,3.8-20.6,8.9-29.5,15.6
			c-3.2,2.6-7.2,7.3-4.4,11.5c2.8,3.6,7.9,3.2,11.8,4.9c-4.9,1.3-10.8,2.7-15.3-0.5c-4.8-3.2-5.5-10.6-2.1-15.1
			c2.9-4,7-6.9,11.2-9.4c8.4-4.9,17-9.6,25.9-13.6c3.2-1.5,6.6-2.9,9-5.6c-5.8,1.3-11.2,3.9-16.8,5.8c-9.4,3.5-19,6.7-27.7,11.8
			c-4.9,3-9.9,6.9-11.7,12.6c-1.1,3.6-2,7.4-0.8,11.1c1.4,5.7,6.4,10.3,12.3,11c10,1.4,19.4-3,28.9-5.2c16.2-4.1,33.1-4.1,49.7-4.9
			C342.8,769,355.7,769.2,368.7,769.1z"/>
		<path class="st1" d="M393.7,754.7c33.2,0.2,66.5-1.4,99.7-0.7c-0.1-3.1-0.1-6.3-0.4-9.3c-0.7-6.7-0.4-13.5-0.5-20.4
			c-15.5,0-31.1,0-46.7,0c-17.3,0-34.7-0.2-52,0.8C394,735,393.1,744.9,393.7,754.7z"/>
		<path class="st1" d="M328.2,794.3c2.5,4.8,1.6,11.1-1.2,15.6c-6.3,8.5-17,13.4-27.5,13.2c-7.1-0.1-14.6,0.4-21-3.4
			c-6-3.4-9-10.7-8.5-17.4c0.4-5,4.4-8.4,7.4-12c-5.5-0.2-10.9,1-16.1,2.4c-15.1,4.3-30.4,8.2-44,16c-14.2,8.3-28.6,16.2-42.7,24.6
			c-33.6,19.1-66.1,39.8-99.3,59.5c-6,3.6-11.9,7.4-18.4,10.3c-3.4,1.3-7.1,3-10.8,1.9c-5.3-1.2-10.9-4.1-12.7-9.6
			c-3.7-9.4-2.4-19.7-3.7-29.6c-1.6-18.8-5.7-37.5-13.4-54.8c-2.1-4.7-4.7-9.2-5.5-14.3c-0.4-2.6,1.6-4.6,3.1-6.5
			c0.2,0.8,0.5,2.4,0.7,3.2c7.2-0.5,14-2.7,21-4c29.5-6.3,58.9-13.1,88.5-19.2c7.6-1.3,15.3-3.4,23.1-2.9c7.7,1.1,14.3,5.8,21.6,8
			c7.5,2.3,16.1,3,23.3-0.7c12.9-6.3,24.1-15.3,36-23.2c13.2-9.3,27.5-17,42.5-23.1c11.2-4.6,22.5-9,34.4-11.4
			c1.3-0.4,2.9-0.5,3.9-1.5c0.5-1.5,0.6-3.1,0.9-4.7c-5.2-0.1-10.5-0.4-15.6,0.7c-18.8,3.6-36.2,11.7-52.9,20.5
			c-13.7,7-25.2,17.4-38.1,25.7c-7.6,4.6-15.9,9.6-25.1,9c-11.8-2.1-22-10.6-34.4-10.1c-17,1.3-33.6,5.5-50.1,9
			c-24.7,5.6-49.4,10.9-74.2,16.3c-4.2,1-8.8,1.2-12.3,3.9c-3.9,3.1-6.7,7.7-6.2,12.8c0.1,6.3,4,11.4,6.5,16.9
			c8.8,20.4,12.8,42.6,13.4,64.8c0.6,7.9,1.1,16.2,5.5,23.1c4.8,7.8,14.4,11.2,23.2,11c10.4,0.4,19.1-6,27.7-10.9
			c40.8-25.3,81.5-50.8,122.5-75.7c8.8-4.8,16.4-11.7,26-15.2c11-4.3,22.2-9.1,33.9-10.9c0.9,3.1,1.5,6.4,2.5,9.5
			c1.6,5.4,5.2,10.3,10.2,13.1c11.8,6.8,26.4,6.9,39.5,4.3c8.4-1.8,17-5.8,21.5-13.5c4.9-7.4,5.5-16.4,7.2-24.9
			c7.5-1.1,15.3,0,22.9-0.7c3.6-0.3,6.3-2.9,7.5-6.1c-17.8,1.1-35.8-0.5-53.4,3.1C321,788.9,325.9,790.4,328.2,794.3z"/>
		<path class="st1" d="M311.5,739.6c-3.5,2.2,0.5,8.3,3.6,5.7C318.1,742.9,314.9,738.1,311.5,739.6z"/>
		<path class="st1" d="M304.5,730.1c-5.6,3.7-10,10.8-7.6,17.5c4,10.2,19.3,13.4,27.3,5.7c5-4.6,8.6-10.6,10.8-17
			c1.8-5,1.6-10.4,1.5-15.6c-0.1-3.8-1.3-7.7-4-10.3c-4.9,0.2-9.8,0.6-14.6,1.5c0.7,4.4,0.8,8.8,0.6,13.3
			C313.6,726.1,308.6,727,304.5,730.1z M322.7,739.7c0.9,6.5-6.3,11.3-12.2,10.4c-3.6-0.7-6.6-4-6.3-7.8c0.4-3.9,3.6-6.8,7.3-7.8
			C315.7,733.2,321.8,734.7,322.7,739.7z"/>
		<path class="st1" d="M340.8,708.5c0.5,4,1.6,8,1.7,12c0.4,9.1-1.7,18.1-4.8,26.6c-1.4,3.9-4.1,7.2-7,10.1
			c12.3-1.3,24.6-2.2,36.9-2.7c0.1-9.9-1.2-19.7-1-29.6c-4.8,0-9.4,0.5-14.1,1.1c-1,2.4-2.2,4.8-3.3,7.2
			C350.1,724.4,347.2,715,340.8,708.5z"/>
		<path class="st1" d="M368.3,717.1c0.4-3.9,1.2-7.6,2.2-11.3c-6.7,0.3-13.4,0.6-20.1,0.6c1.3,3.7,2.9,7.3,4.8,10.8
			C359.5,717.2,363.9,717.2,368.3,717.1z"/>
		<path class="st1" d="M454.7,716.4c11.8-0.5,23.8,0.1,35.7-0.4c3.7-2.9,2.9-8.3,3.9-12.4c-6.3,0.2-12.6,0.9-18.9,0.9
			c-13.7,0-27.5,1-41.3,0.9c-11.6,0-23.1,0-34.6,0.4c-2.5,3.3-4.5,7.1-5.2,11.3C414.4,717.3,434.5,716.9,454.7,716.4z"/>
		<path class="st1" d="M328.5,705.4c-0.5-2.3-1.1-4.8-1.5-7.1c-3.4-0.1-6.8,0.4-10.1,1.2c-0.1,2-0.2,3.9-0.3,5.8
			C320.5,706.2,324.7,707.1,328.5,705.4z"/>
		<path class="st1" d="M513.7,744.9c-0.5-9.5-0.2-19,0.4-28.5c0.6-6.3,2.3-12.5,1.4-18.8c-4.3,0.8-10.2-0.6-13,3.6
			c-3.1,6.9-3,14.8-3.2,22.2c-0.3,14.6-0.3,29.5,3.1,43.8c0.6,2.1,1.2,4.8,3.5,5.6c3.9,1.3,8.3,1,12.3-0.4c0.9-1-0.3-2.3-0.4-3.4
			C514.6,761.4,514.1,753,513.7,744.9z"/>
		<path class="st1" d="M385.8,726.1c0.6-5.7,0.6-11.6,2.6-17c1.4-4.1,5.5-6.5,8.3-9.6c-4.8-1.1-10.8-3.7-15.1,0.2
			c-5.3,5.3-6.6,13.1-7.5,20.3c-0.4,9.8-0.4,19.6-0.2,29.4c-0.2,6.6,0.4,13.2,1.8,19.6c1,4.1,2.2,8.7,5.6,11.6
			c3.8,2.9,9.5,4.3,13.5,1.1c-2.5-4.8-5-9.6-6.1-14.9C385.9,753.5,385.2,739.7,385.8,726.1z"/>
		<path class="st1" d="M549.8,751.2c19.7-0.6,39.5-1.4,59.1-0.2c26.7,0.5,53.5,4.3,79.1,11.9c-2.2-18.5-3-37.2-1-55.7
			c0.5-7.6,2-15.1,2.8-22.5c-19.5,13.1-42.5,19.3-65.1,24.8c-34,7.4-68.8,11.5-103.6,12.4c-0.1,10.1-0.4,20.2,1,30.2
			C531.3,751.3,540.5,751.1,549.8,751.2z"/>
		<path class="st1" d="M311.2,702.8c-0.1-3.9,0.4-7.7,0.4-11.6c-4.2-5.9-8.7-12.4-15.4-15.7c-1.9-1.3-4.4-0.4-5.5,1.4
			c-0.9,3.1,0.8,6.1,2.5,8.6C298,692.5,304.8,697.5,311.2,702.8z"/>
		<path class="st1" d="M325.1,690.7c0.7-4.9,2.7-10.2,7.8-12c5.2-2.4,10.3,1.2,15.2,2.8c0-2.2,0.4-4.7-1-6.5c-1.7-2.6-4.7-4.1-7.5-5
			c-12.9-3.1-26.1,11.3-22.2,23.9C319.9,692.8,323.1,692.7,325.1,690.7z"/>
		<path class="st1" d="M536.2,713.8c20.1-1.3,40.1-3.2,60-6.2c22.2-3.1,44.2-8.2,65-16.7c11.2-4.5,21.4-11.1,30.7-18.6
			c2.8-2.9,3.4-7.3,5.1-10.9c-10.9,7.4-22.6,13.7-34.6,19.1c-16.6,7-34.3,11.2-51.9,14.5c-28.8,4.9-58,7.4-87.3,7.9
			c-0.9,3.7-1.3,7.5-1.3,11.3C526.6,714.5,531.4,714.3,536.2,713.8z"/>
		<path class="st1" d="M750.3,681.5c-3.1-10.9-7.1-22.2-15.5-30.2c-4.4-4.3-10.9-6.4-16.9-4.7c-7.3,2.3-11.4,9.5-14.3,16.1
			c-7.2,17.5-9.7,36.4-11.1,55.2c-0.2,13.8-0.4,27.7,1.6,41.4c2.2,14.7,5.2,29.8,12.9,42.8c3.6,5.7,9,11.3,16.1,11.6
			c7.1,0.1,12.8-5.1,16.8-10.5c7.5-10.9,10.9-24.1,13.3-37C757.8,738.2,757.4,709.2,750.3,681.5z M749,728.6
			c0.2,15.6-1.3,31.2-4.9,46.4c-2.7,9.4-5.6,19.6-12.8,26.6c-2.5,2.6-6.7,4.7-10.1,2.5c-6-4.1-8.5-11.2-10.9-17.8
			c-7.4-22.5-8.6-46.5-7.6-70c1.3-17,3.6-34.3,9.9-50.3c2-4.5,4.3-9.5,9.1-11.8c4-1.1,7.6,1.9,10.3,4.5c7.5,7.5,10.6,18.1,13,28.2
			C747.9,700.6,749.3,714.6,749,728.6z"/>
	</g>
</g>
<g>
	<path class="st1" d="M692.9,569.4c-8.7-5.6-13.3-16-13.3-25.9c-0.2-111.4,0-222.8-0.2-334c-14.5,0-29-0.4-43.6,0
		c-9.1-0.2-12.7,9.5-17.4,15.6c-18.9,25.9-50.8,38.4-81.9,40.9c-0.2,11.6-0.2,23.2,0,34.9c15.6,0.2,31.3-0.8,47.1,0.2
		c8.3,2.5,10.6,12.7,10.8,20.3c0,74.7,0,149.6,0,224.3c0.4,9.8-5.2,18.7-13.3,23.9c-6.6,4.1-14.5,3.1-21.8,3.5
		c-0.2,11.6-0.2,23,0,34.6c51,0,102.1,0.2,152.9-0.2c0-11.4,0-23,0-34.4C705.7,572.3,698.7,572.7,692.9,569.4z"/>
	<path class="st1" d="M386.9,347.4c-28.8-0.2-58.7,5.6-83,22c0.4-18.7,3.5-37.3,4.8-56c1.5-9.3,0.8-19.1,2.7-28.2l1.2-1.2
		c27.4-0.4,55,0.4,82.6,0c16.6,0,34.2-1.5,49.4,6.6c6.4,4.1,12,9.3,18.9,12.7c1.9-4.1,3.7-8.5,4.1-13.3c3.3-24.5,6.8-49.2,13.9-73
		c1.7-5.4,2.7-10.8,3.5-16.4c-12.4-0.6-22,9.5-34.4,9.5c-64.7,3.1-129.4-0.4-194.2,1.2c-3.7,73-8.1,146-12.2,219.1
		c19.1,2.5,37.8,6.4,56.8,9.3c4.1-8.3,8.1-17,14.9-23.4c19.9-16.2,51.7-19.9,72.2-2.9c12.2,11,19.1,27.4,20.5,43.8
		c2.1,21,1,42.3-3.9,62.6c-4.6,19.1-20.3,35.5-39.8,39c-17.2,3.9-36.5-2.9-47.1-17c-11-14.3-11.4-33.2-14.1-50.2
		c-22,8.7-44.8,15.1-67.4,21.8c-5.4,1.2-4.1,7.9-3.9,12c1,26.1,15.4,50.6,36.1,66c23.6,18,53.7,24.9,83,26.8
		c41.9,2.1,85.7-11.8,114.9-42.7c23-23,34.9-55.8,35.3-88c1.7-30.7-3.9-62.9-21.8-88.8C460.3,367.1,423.8,347.6,386.9,347.4z"/>
</g>
</svg>
