<?xml version="1.0" encoding="utf-8"?>
<!-- Generator: Adobe Illustrator 27.9.0, SVG Export Plug-In . SVG Version: 6.00 Build 0)  -->
<svg version="1.1" id="Camada_2_00000138563729334219113100000006711186787252333486_"
	 xmlns="http://www.w3.org/2000/svg" xmlns:xlink="http://www.w3.org/1999/xlink" x="0px" y="0px" viewBox="0 0 842.2 705.5"
	 style="enable-background:new 0 0 842.2 705.5;" xml:space="preserve">
<style type="text/css">
	.st0{fill:#FFFFFF;}
</style>
<g>
	<g id="Camada_1-2">
		<g>
			<path class="st0" d="M317.6,550c-5.5-2.8-8.1-8.8-9.7-14.5c-2.2-8-3.7-16.1-7-23.7c-4.6-11.5-12.9-21.2-22.1-29.3
				c-2.5,12.2-0.6,25.3,5.1,36.4c3.7,7.3,9.5,13.2,15,19.2c1,1.1,1.8,2.4,2.5,3.7c-4.4-1.5-8.2-4.2-12-6.6
				c-7.2-4.8-14.3-10-20.8-15.8c-5.1-4.9-6.3-12.4-5.5-19.2c1-7.2,0.7-14.5,0.7-21.8c-0.6-11.5-4.3-22.6-9.8-32.6
				c-8.8,13.7-9.3,31.3-3.9,46.4c1.8,5.5,4.7,10.6,7,15.9c-3.3-1.7-5.5-4.7-8-7.3c-4.7-4.8-8.7-10.2-12.6-15.6
				c-1.4-1.9-2.6-4.2-2.6-6.6c-0.3-5.5-0.4-11.2,1.1-16.5c6.1-17.7,6.7-37.7-1.3-54.9c-0.3,0-0.8,0-1.1,0
				c-8.7,13.9-11,31.1-8.3,47.1c0.7,5.6,2.7,10.9,3.5,16.4c-1-1.2-2-2.5-2.8-3.9c-4.2-8.1-7.9-16.4-10.6-25.1
				c-0.9-3.3-2.5-6.6-1.7-10c1.3-6.8,3.6-13.5,4.5-20.4c2.1-16-0.9-33-9.6-46.8c-8,12.1-9.6,27.2-8.2,41.4
				c1.5,14.9,7.3,28.9,11.3,43.2c-4.2-4.7-6.6-10.7-10.5-15.6c-7.3-10.5-18.3-18.6-30.9-21.4c4.8,22.1,21.3,40.7,41.9,49.4
				c2.6,1.1,5.7,2,6.8,4.9c4.9,9.6,11.2,18.4,17.2,27.3c-5.8-3.3-10.4-8.3-15.8-12.1c-11.3-8.6-25.2-14.8-39.6-13.8
				c4.1,7.8,10,14.4,16.8,19.9c10.9,8.4,24.3,12.9,37.9,14.4c3.5,0.7,7.8,0,10.4,3c4.8,4.9,9.7,9.7,15,14c3.4,3,7.3,5.7,10,9.5
				c-6.2-2.2-11.8-5.9-18.1-8c-13.7-5.1-29.2-6.9-43.3-2.4c3.2,3.5,7.1,6.2,10.9,9c11.7,8.2,26.2,11.8,40.3,11.2
				c7.7,0.3,15.4-1.9,23-0.5c5.1,2.9,9.9,6.3,15.1,8.9c5.4,3.1,11.3,5.3,16.3,9.1c-7-1-13.7-3.8-20.7-4.7
				c-14.3-2.9-29.6-0.6-42.3,6.5c14.2,10.1,32.7,13.1,49.7,10.1c8.6-1.1,16.6-5.4,25.4-5.3c4.2-0.4,8.1,1.6,12,3
				c15,5.6,30.9,9.4,44.9,17.4c2.1,1.2,3.9,2.8,6.2,3.7c1.8-1.6,2.5-3.9,3.6-6c-6.8-5.6-15.2-8.7-23.4-11.5
				C351.8,563.4,334,558.3,317.6,550L317.6,550z"/>
			<path class="st0" d="M631.3,461.2c20.6-8.8,37.1-27.4,41.9-49.4c-12.6,2.8-23.5,10.9-30.9,21.4c-3.9,4.9-6.3,10.9-10.5,15.6
				c4-14.3,9.8-28.3,11.3-43.2c1.4-14.1-0.2-29.3-8.2-41.4c-8.6,13.8-11.6,30.8-9.6,46.8c0.8,6.9,3.2,13.6,4.5,20.4
				c0.8,3.4-0.7,6.8-1.7,10c-2.7,8.7-6.4,17-10.6,25.1c-0.8,1.4-1.8,2.7-2.8,3.9c0.8-5.6,2.8-10.9,3.5-16.4
				c2.6-16,0.3-33.2-8.3-47.1c-0.3,0-0.8,0-1.1,0c-8,17.2-7.4,37.2-1.3,54.9c1.6,5.3,1.4,11,1.1,16.5c0,2.5-1.2,4.7-2.6,6.6
				c-4,5.4-8,10.8-12.6,15.6c-2.5,2.6-4.7,5.6-8,7.3c2.3-5.3,5.3-10.3,7-15.9c5.4-15,4.9-32.7-3.9-46.4c-5.5,10-9.2,21.2-9.8,32.6
				c-0.1,7.3-0.3,14.6,0.7,21.8c0.9,6.7-0.4,14.3-5.5,19.2c-6.5,5.8-13.5,11-20.8,15.8c-3.9,2.4-7.7,5.1-12,6.6
				c0.7-1.3,1.5-2.6,2.5-3.7c5.5-6,11.3-11.9,15-19.2c5.7-11.1,7.6-24.2,5.1-36.4c-9.3,8.1-17.5,17.8-22.1,29.3
				c-3.4,7.6-4.9,15.8-7,23.7c-1.6,5.6-4.2,11.7-9.7,14.5c-16.4,8.3-34.2,13.4-51.7,19c-8.2,2.8-16.6,6-23.4,11.5
				c1.1,2,1.8,4.4,3.6,6c2.2-0.9,4.1-2.6,6.2-3.7c14-8.1,29.9-11.8,44.9-17.4c3.9-1.4,7.7-3.4,12-3c8.8-0.1,16.8,4.2,25.4,5.3
				c17,3,35.5,0,49.7-10.1c-12.7-7-28-9.3-42.3-6.5c-7.1,1-13.7,3.8-20.7,4.7c5-3.8,10.9-6,16.3-9.1c5.2-2.6,10-6,15.1-8.9
				c7.6-1.5,15.3,0.8,23,0.5c14.1,0.5,28.7-3,40.3-11.2c3.8-2.7,7.7-5.5,10.9-9c-14.1-4.5-29.6-2.7-43.3,2.4
				c-6.3,2.1-11.9,5.8-18.1,8c2.7-3.8,6.5-6.4,10-9.5c5.3-4.3,10.2-9.2,15-14c2.6-2.9,6.9-2.2,10.4-3c13.6-1.6,27-6,37.9-14.4
				c6.8-5.5,12.7-12.2,16.8-19.9c-14.4-1-28.3,5.2-39.6,13.8c-5.5,3.8-10,8.8-15.8,12.1c6-9,12.3-17.7,17.2-27.3
				C625.6,463.2,628.7,462.3,631.3,461.2L631.3,461.2z"/>
			<path class="st0" d="M465.8,373.8c3.3,1,4.3,5,4.3,8.1c0,30,0,59.9,0,89.9c0.2,3.9-2.1,7.5-5.3,9.6c-2.6,1.6-5.8,1.3-8.8,1.4
				c-0.1,4.6-0.1,9.3,0,13.9c20.4,0,40.9,0.1,61.3-0.1c0-4.6,0-9.2,0-13.8c-2.6-0.3-5.4-0.1-7.7-1.4c-3.5-2.2-5.3-6.4-5.3-10.4
				c-0.1-44.6,0-89.2,0-133.9c-5.8,0-11.6-0.1-17.4,0c-3.7,0-5.1,3.8-7,6.2c-7.5,10.4-20.4,15.4-32.9,16.3c-0.1,4.6-0.1,9.3,0,14
				C453.1,373.8,459.5,373.4,465.8,373.8L465.8,373.8z"/>
			<path class="st0" d="M386.9,392.4c-11.6-0.1-23.6,2.2-33.3,8.8c0.1-7.5,1.4-15,1.9-22.5c0.6-3.8,0.3-7.6,1.1-11.3l0.5-0.5
				c11-0.2,22.1,0.2,33.1,0c6.6,0,13.7-0.6,19.8,2.6c2.6,1.6,4.8,3.8,7.6,5.1c0.8-1.7,1.5-3.4,1.7-5.3c1.4-9.8,2.8-19.7,5.6-29.3
				c0.6-2.1,1.1-4.3,1.4-6.5c-5-0.2-8.9,3.8-13.8,3.8c-25.9,1.2-51.9-0.2-77.8,0.5c-1.5,29.3-3.3,58.5-4.9,87.8
				c7.6,1,15.2,2.6,22.8,3.7c1.7-3.3,3.2-6.8,6-9.4c8-6.5,20.7-8,28.9-1.2c4.9,4.4,7.7,11,8.3,17.5c0.9,8.4,0.4,16.9-1.6,25.1
				c-1.8,7.6-8.1,14.2-16,15.6c-6.9,1.5-14.6-1.1-18.9-6.8c-4.4-5.7-4.5-13.3-5.6-20.1c-8.8,3.5-17.9,6.1-27,8.8
				c-2.2,0.5-1.7,3.2-1.6,4.8c0.4,10.4,6.1,20.2,14.5,26.4c9.4,7.3,21.6,9.9,33.2,10.7c16.8,0.8,34.4-4.7,46.1-17.1
				c9.3-9.2,14-22.3,14.1-35.3c0.7-12.3-1.6-25.2-8.7-35.6C416.4,400.3,401.7,392.5,386.9,392.4L386.9,392.4z"/>
			<path class="st0" d="M133.2,334.6c7.4-2.6,14.4-6.3,21.7-9.4c16-8.2,31.6-17.1,47.4-25.8c2.7-1.4,5.3-2.9,7.7-4.8
				c-7.7,3.1-14.9,7.3-22.5,10.6c-15,7.3-30.1,14.6-44.8,22.6C139.4,330,135.9,331.7,133.2,334.6L133.2,334.6z"/>
			<path class="st0" d="M337.6,281c-1.1,5.1-0.7,10.7,2,15.3c1.9,3.1,4.8,5.8,8.6,6c-0.9-3-2.2-5.9-3.3-8.8
				c-1.7-4.9-1.1-10.1-1.1-15.1C341.7,278.8,338.3,278.3,337.6,281L337.6,281z"/>
			<path class="st0" d="M117.4,375.3c7.7-3.5,14.6-8.4,22.2-12.3c13.5-7,25.7-16.2,39.1-23.3c11.1-6.1,21.8-13,32.9-19.4
				c14.7-8.3,29.3-16.5,43.7-25.3c11.6-7.4,23.9-13.9,37.2-17.7c1.1-0.4,2.2-1,3.3-1.5c-3.4,0.3-6.7,0.5-10.1,0.8
				c-4.9,0.8-9.4,3-13.9,5.1c-23.9,11.8-46.9,25.2-69.3,39.6c-12.8,8.5-26.5,15.5-39.6,23.6c-7.2,4.3-14,9.3-21.2,13.7
				c-7,4.3-14,8.7-20.7,13.4C119.7,372.9,118.5,374.1,117.4,375.3L117.4,375.3z"/>
			<path class="st0" d="M214.6,275.5c-6.4,1.6-12.4,4.5-18.6,6.8c-8.8,3.7-17.8,7-26,11.8c4.1-0.5,7.9-2.1,11.8-3.5
				c7.6-3.1,15-6.6,22.6-9.9C207.8,279,211.5,277.7,214.6,275.5L214.6,275.5z"/>
			<path class="st0" d="M477.6,267.3c-8.1,0.7-16.1,1.1-24.2,0.3c2.2,1.6,5.1,1.3,7.6,1.5c9.4,1,18.9,0.6,28.3,0.5
				c7.3-0.8,14.8-0.4,21.8-3C500,265.6,488.8,267.5,477.6,267.3L477.6,267.3z"/>
			<path class="st0" d="M483.5,259.4c9.7-0.3,19.4-0.6,29.1-0.5c5.9,0.1,11.7-0.9,17.5-1c-0.6-1.7-1.2-3.5-1.8-5.2
				c-4.7,0.3-9.5,0.5-14.2-0.1c-5.4-0.6-10.8-0.3-16.1-0.7c-11.8-0.8-23.5-0.1-35.3,0.2c-9.1-0.1-18.2,0.9-27.3,0.9
				c0.9,2,1.6,4.2,3.2,5.8c2.7,1,5.6,0.5,8.4,0.7C459.1,259.7,471.3,260,483.5,259.4L483.5,259.4z"/>
			<path class="st0" d="M712,278.9c-7.9-5-16.2-9.3-24.3-13.8c-12.5-5.9-26.2-8.8-39.7-11.1c-14.8-2.5-29.8-3.3-44.8-4.2
				c-10.6,0.1-21.3-0.3-31.9,0.5c-5.5,0.5-11,0.1-16.5,0.5c0.3,2,0.5,4.1,1.4,6c2.4,1,5.3,0.3,7.9,0.5c15.8,0.1,31.6-0.5,47.3,0.7
				c29.2,1.9,58.7,7,85.3,19.6c7.1,3.4,13.9,7.4,21.1,10.7C716.1,285.1,715.3,280.9,712,278.9L712,278.9z"/>
			<path class="st0" d="M412,259.7c0-2.2-0.1-4.3-0.1-6.5c-8-0.5-16,0.8-24,0.7c-5.3-0.1-10.5,0.8-15.8,0.9
				c-6.1,0.2-12.4,1.7-18.5,0.2c-4-1.4-8.1-3.3-10.9-6.6c-3.8-4.5-4-10.7-4-16.3c-9.7,3.5-19.1,8.2-27.4,14.4c-3,2.4-6.7,6.7-4,10.6
				c2.6,3.3,7.3,3,10.9,4.5c-4.5,1.3-9.9,2.5-14.1-0.5c-4.5-3-5.1-9.8-1.9-13.9c2.7-3.7,6.5-6.4,10.4-8.7c7.8-4.6,15.8-8.9,24-12.7
				c3-1.4,6.1-2.7,8.4-5.2c-5.4,1.3-10.4,3.5-15.6,5.4c-8.7,3.2-17.6,6.2-25.7,10.9c-4.6,2.8-9.2,6.4-10.8,11.7
				c-1,3.3-1.8,6.9-0.8,10.3c1.3,5.3,5.9,9.6,11.4,10.2c9.2,1.4,18-2.7,26.8-4.8c15-3.8,30.6-3.8,46-4.6
				C388.2,259.7,400.1,259.8,412,259.7L412,259.7z"/>
			<path class="st0" d="M435.2,246.4c30.8,0.2,61.6-1.4,92.4-0.7c0-2.9-0.1-5.8-0.4-8.7c-0.7-6.3-0.4-12.6-0.5-18.9
				c-14.4,0-28.8,0-43.2,0c-16.1,0-32.2-0.2-48.2,0.8C435.5,228.1,434.7,237.3,435.2,246.4L435.2,246.4z"/>
			<path class="st0" d="M279.4,300c10.2-4,20.5-8.4,31.4-10.1c0.8,2.9,1.4,5.9,2.3,8.8c1.5,5,4.8,9.6,9.5,12.1
				c11,6.3,24.4,6.4,36.5,4c7.8-1.7,15.7-5.4,19.9-12.5c4.6-6.8,5.1-15.2,6.7-23c7-1,14.1,0,21.2-0.7c3.3-0.3,5.8-2.7,7-5.6
				c-16.5,1-33.2-0.5-49.5,2.8c3.4,2.3,7.9,3.5,10.1,7.3c2.3,4.5,1.5,10.3-1.1,14.5c-5.8,7.9-15.7,12.4-25.4,12.2
				c-6.5,0-13.6,0.3-19.4-3.2c-5.6-3.2-8.3-9.9-7.9-16.1c0.4-4.6,4.1-7.8,6.8-11.1c-5.1-0.2-10,0.9-14.9,2.2
				c-13.9,4-28.1,7.6-40.8,14.8c-13.2,7.7-26.5,15-39.6,22.8c-31.1,17.7-61.3,36.9-92,55.1c-5.6,3.3-11.1,6.9-17,9.6
				c-3.2,1.2-6.6,2.7-10,1.8c-4.9-1.1-10.1-3.8-11.8-8.9c-3.4-8.8-2.2-18.3-3.4-27.4c-1.5-17.4-5.3-34.7-12.4-50.8
				c-1.9-4.3-4.3-8.5-5.1-13.2c-0.4-2.4,1.5-4.3,2.8-6c0.2,0.7,0.5,2.2,0.7,3c6.6-0.5,13-2.5,19.5-3.7c27.3-5.8,54.6-12.1,81.9-17.8
				c7.1-1.2,14.1-3.1,21.3-2.7c7.2,1,13.2,5.4,20.1,7.4c7,2.2,14.9,2.7,21.6-0.7c11.9-5.8,22.3-14.2,33.4-21.5
				c12.2-8.6,25.5-15.8,39.4-21.3c10.4-4.2,20.8-8.3,31.8-10.5c1.2-0.4,2.6-0.5,3.6-1.4c0.5-1.4,0.6-2.9,0.9-4.3
				c-4.8-0.1-9.7-0.3-14.4,0.7c-17.3,3.4-33.5,10.8-49,19.1c-12.7,6.5-23.4,16.1-35.3,23.8c-7,4.2-14.7,8.9-23.2,8.3
				c-11-1.9-20.4-9.8-31.9-9.4c-15.7,1.2-31,5.1-46.4,8.3c-22.9,5.1-45.8,10.2-68.7,15.1c-3.9,0.9-8.2,1.1-11.4,3.6
				c-3.6,2.8-6.3,7.2-5.7,11.9c0.1,5.8,3.8,10.5,6,15.6c8.2,18.9,11.9,39.5,12.4,60c0.5,7.3,1,15.1,5,21.4
				c4.4,7.2,13.3,10.4,21.5,10.2c9.6,0.3,17.7-5.5,25.7-10.1c37.8-23.5,75.5-47.1,113.6-70.1C263.4,309.6,270.5,303.3,279.4,300
				L279.4,300z"/>
			<path class="st0" d="M362.4,237.7c2.7-2.2-0.2-6.6-3.3-5.2C355.9,234.4,359.6,240,362.4,237.7z"/>
			<path class="st0" d="M345.5,239.8c3.7,9.5,17.9,12.3,25.2,5.3c4.6-4.2,8-9.8,10-15.8c1.7-4.6,1.5-9.7,1.4-14.5
				c-0.1-3.5-1.2-7.1-3.8-9.6c-4.5,0.1-9.1,0.6-13.6,1.4c0.6,4.1,0.8,8.2,0.6,12.3c-4.5,0.9-9.1,1.8-12.8,4.6
				C347.5,227,343.3,233.5,345.5,239.8L345.5,239.8z M359.1,227.7c3.9-1.2,9.6,0.2,10.4,4.8c0.9,6.1-5.9,10.5-11.3,9.7
				c-3.3-0.6-6.1-3.7-5.8-7.2C352.7,231.3,355.7,228.6,359.1,227.7L359.1,227.7z"/>
			<path class="st0" d="M386.3,203.7c0.5,3.7,1.5,7.4,1.6,11.2c0.4,8.4-1.5,16.8-4.5,24.7c-1.3,3.7-3.8,6.6-6.5,9.4
				c11.4-1.2,22.8-2,34.2-2.5c0.1-9.2-1-18.3-0.9-27.4c-4.4,0-8.7,0.5-13,1c-0.9,2.3-2,4.5-3.1,6.6
				C394.8,218.4,392.2,209.6,386.3,203.7L386.3,203.7z"/>
			<path class="st0" d="M395.1,201.6c1.2,3.4,2.7,6.7,4.4,9.9c4.1,0,8.2,0,12.2-0.1c0.3-3.5,1.1-7,2-10.4
				C407.5,201.3,401.3,201.6,395.1,201.6L395.1,201.6z"/>
			<path class="st0" d="M510.9,199.9c-12.8,0-25.5,0.9-38.2,0.8c-10.7,0-21.4,0-32.1,0.3c-2.4,3.1-4.2,6.6-4.8,10.5
				c18.7,0.3,37.4-0.2,56-0.6c11-0.5,22.1,0.1,33.1-0.4c3.4-2.6,2.6-7.7,3.6-11.5C522.6,199.3,516.8,199.9,510.9,199.9L510.9,199.9z
				"/>
			<path class="st0" d="M374.8,200.7c-0.5-2.2-1-4.4-1.4-6.6c-3.2-0.1-6.3,0.4-9.4,1.1c-0.1,1.8-0.1,3.6-0.3,5.4
				C367.4,201.5,371.3,202.3,374.8,200.7z"/>
			<path class="st0" d="M548.1,193.5c-4,0.8-9.5-0.6-12,3.3c-2.9,6.4-2.8,13.7-3,20.6c-0.3,13.6-0.3,27.3,2.9,40.6
				c0.6,1.9,1.1,4.4,3.2,5.2c3.7,1.3,7.8,0.9,11.4-0.3c0.8-0.9-0.3-2.1-0.4-3.2c-3-7.1-3.4-14.8-3.7-22.4
				c-0.5-8.8-0.2-17.6,0.4-26.4C547.4,205.1,549,199.3,548.1,193.5L548.1,193.5z"/>
			<path class="st0" d="M428,219.9c0.6-5.3,0.6-10.7,2.4-15.8c1.4-3.9,5.1-6,7.7-8.9c-4.5-1-10-3.4-14,0.2c-4.9,4.9-6.1,12.2-7,18.8
				c-0.4,9.1-0.4,18.2-0.2,27.3c-0.1,6.1,0.4,12.2,1.7,18.2c0.9,3.8,2,8,5.2,10.7c3.5,2.7,8.8,3.9,12.5,1c-2.4-4.4-4.6-8.9-5.6-13.8
				C428,245.2,427.3,232.5,428,219.9L428,219.9z"/>
			<path class="st0" d="M709.7,181.6c-18,12.2-39.4,17.9-60.3,22.9c-31.5,6.9-63.7,10.7-96,11.5c-0.1,9.4-0.3,18.7,0.9,28
				c8.5-0.7,17.1-1,25.7-0.9c18.3-0.6,36.5-1.4,54.8-0.2c24.8,0.5,49.5,4,73.3,11.1c-2-17.1-2.8-34.5-0.9-51.6
				C707.6,195.4,708.9,188.5,709.7,181.6L709.7,181.6z"/>
			<path class="st0" d="M344.9,173.1c-1.8-1.2-4-0.4-5.1,1.4c-0.8,2.9,0.7,5.7,2.3,8c4.4,6.4,10.7,11,16.6,15.9
				c-0.1-3.6,0.4-7.2,0.4-10.7C355.3,182.1,351.1,176.1,344.9,173.1L344.9,173.1z"/>
			<path class="st0" d="M385.1,167.8c-12-2.8-24.2,10.5-20.6,22.1c2.4-0.9,5.3-1,7.2-2.8c0.6-4.5,2.5-9.5,7.2-11.1
				c4.8-2.2,9.5,1.1,14,2.6c0-2,0.4-4.3-0.9-6.1C390.5,170,387.8,168.6,385.1,167.8L385.1,167.8z"/>
			<path class="st0" d="M716.2,160.1c-10.1,6.8-20.9,12.7-32.1,17.7c-15.4,6.5-31.7,10.4-48.1,13.5c-26.7,4.6-53.8,6.9-80.9,7.3
				c-0.8,3.4-1.2,7-1.3,10.5c4.4,0.1,8.9,0,13.3-0.5c18.6-1.2,37.2-3,55.6-5.7c20.5-3,40.9-7.6,60.2-15.4
				c10.4-4.1,19.8-10.3,28.5-17.2C714.1,167.4,714.7,163.4,716.2,160.1L716.2,160.1z"/>
			<path class="st0" d="M765.7,178.6c-2.8-10.1-6.6-20.6-14.3-28c-4.1-4-10.1-5.9-15.7-4.4c-6.7,2.2-10.5,8.8-13.2,14.9
				c-6.7,16.2-9,33.8-10.3,51.1c-0.2,12.8-0.4,25.7,1.5,38.4c2.1,13.6,4.8,27.6,11.9,39.6c3.4,5.2,8.4,10.5,15,10.7
				c6.6,0.1,11.9-4.7,15.6-9.7c7-10.1,10.1-22.4,12.3-34.3C772.7,231.1,772.2,204.2,765.7,178.6L765.7,178.6z M759.9,265.2
				c-2.5,8.8-5.1,18.2-11.9,24.7c-2.4,2.4-6.2,4.3-9.4,2.4c-5.5-3.8-7.9-10.4-10.1-16.4c-6.9-20.8-8-43.1-7-64.8
				c1.2-15.8,3.3-31.8,9.1-46.6c1.8-4.2,4-8.8,8.4-10.9c3.7-1,7,1.7,9.5,4.2c7,7,9.8,16.8,12.1,26.1c2.9,12.6,4.2,25.6,3.9,38.5
				C764.7,236.7,763.3,251.2,759.9,265.2L759.9,265.2z"/>
			<path class="st0" d="M630.2,170c3.3-1.5,6.7-3.1,9.8-5c-9.3-8-20.2-14-31.1-19.5c-29.9-14.9-62.2-24.5-95-30.5
				c-29-5.4-58.6-7.9-88.2-7.4c-13.6,0.7-27.2,1.1-40.7,2.5c-18.1,1.7-36,4.7-53.7,8.7c-40.8,9.5-80.6,25.1-115.3,48.9
				c3.5,1.9,7.2,3.5,10.9,5.1c6.2-5.4,13.5-9.2,20.7-13.1c11-5.7,22.4-10.6,33.9-15.1c37.2-14.3,76.5-23,116.2-25.8
				c30.4-2.4,61-1.6,91.2,2.2c35.1,4.8,69.8,13.1,102.4,27.2C604.9,154.3,618.5,160.7,630.2,170L630.2,170z"/>
			<path class="st0" d="M629.9,108.9c-2.1,7.5-2.1,16,2,22.8c4.6,7.8,13.1,13,22,14.5c7.6,1.4,15.5-1.3,21.4-6.1
				c8.1-6.5,13.4-15.7,18.6-24.6c2.7-5,5.8-9.9,6.8-15.6c0.5-5.2,0.5-10.7-1.5-15.7c-4.7-12.1-18.5-19.5-31.3-17.9
				c-12,1.7-20.6,11.6-26.8,21.3C637.1,94.7,632,101.1,629.9,108.9L629.9,108.9z M650,107.4c3.9-6.5,7.8-13,12.6-19
				c2.8-3.3,6-7,10.4-8c5.8-1.1,12.1,3.8,12.2,9.8c0.1,3.4-1.5,6.6-2.9,9.6c-3.9,7.7-8.4,15.2-13.4,22.3c-3.1,3.8-6.4,8.1-11.3,9.5
				c-5.8,1.5-12-3.1-12.5-9C644.4,117,647.4,112,650,107.4L650,107.4z"/>
			<path class="st0" d="M150.8,95.8c9.7,15.3,19.1,30.7,28.9,45.9c1.6,2.6,3.6,4.9,4.8,7.7c0.4,2.5,0.2,5,0.3,7.5
				c6.2-3.3,11.7-7.8,17.7-11.6c6.2-4.2,13-7.9,18-13.5c4.5-5.1,5.2-12.6,3-18.9c-2.1-6-5.6-12.3-11.7-14.9c-4.1-2-8.7-1.1-13-0.3
				c2.1-3.6,4.7-7.3,5.1-11.7c-0.5-9.7-8.1-19.5-18.3-20.1c-4.5-0.4-8.9,1-12.8,3.1c-8,4.2-15.6,9.3-23.1,14.4
				c-2.9,2-6.2,3.6-8.5,6.4C144.6,91.4,148.8,92.2,150.8,95.8L150.8,95.8z M199.7,109.8c3.5,0.3,5.7,3.5,7.1,6.4
				c1.5,3,2.1,7.1-0.2,9.9c-2.3,3-5.4,5.2-8.6,7.1c-1,0.4-2.6,1.7-3.4,0.2c-3.6-5.8-7.3-11.6-10.9-17.4
				C188.4,112.9,193.7,109,199.7,109.8z M172.8,84c2.8-1.6,6.2-3.9,9.5-2.3c5.3,2.3,8.5,9.2,6,14.5c-2.5,4.1-6.5,7.2-10.9,9.2
				c-3.5-5.6-7.2-11-10.2-16.9C168.4,86.4,170.9,85.4,172.8,84z"/>
			<path class="st0" d="M227.1,52.8c3.5,20.8,7.5,41.6,10.7,62.5c0.9,4.1-1.6,7.7-1.9,11.6c7.9-3.7,16.1-6.9,23.8-11
				c-2.1-1.6-4.5-2.8-6.1-4.8c-1.8-3-1.8-6.6-2.4-9.9c4.7-2.5,9.7-4.4,14.5-6.6c1.4-0.5,2.8-1.4,4.3-0.9c2.1,2.5,4,5.3,5.1,8.3
				c0.3,2.7-0.3,5.4-0.2,8c8-3.2,16.4-5.5,24.5-8.4c0-2-2.5-2.4-3.7-3.6c-5.9-3.5-9.2-9.7-13.1-15.1c-8.9-12.5-17.6-25-26.6-37.4
				c-1.6-2.3-3.6-4.5-4.5-7.2c-0.5-2.5,0.3-5,0.6-7.5c-2.8,0.7-5.6,1.7-8.2,2.9c-7.9,3.5-16,6.7-23.6,10.9
				C222.8,47.1,226.7,48.8,227.1,52.8L227.1,52.8z M244.2,54.8c5.2,7.9,10.3,15.8,15.4,23.7c0.7,1.2,1.3,2.6,1.9,3.9
				c-4.4,1.8-8.7,4.2-13.3,5.5c-1.9-9.6-3.6-19.3-5.7-28.8c-0.4-1.9-0.9-3.8-0.8-5.8C242.9,52.4,243.5,54,244.2,54.8L244.2,54.8z"/>
			<path class="st0" d="M551.2,98.8c3.2,2.1,7,2.9,10.6,4.2c4.5,1.6,9,3.4,13.6,4.6c-0.2-2.7-0.9-5.5-0.8-8.2c0.6-3.4,2.9-6,5.1-8.6
				c6.2,2,12.4,4.4,18.4,6.8c-0.3,3.4-0.1,7-1.8,10.1c-1.6,2.2-3.8,3.9-5.6,5.8c4,2.1,8.2,3.7,12.3,5.5c3.8,1.6,7.6,3.6,11.7,4.5
				c-0.3-4-2.6-7.7-1.7-11.8c2.8-18.6,5.8-37.1,8.3-55.7c0.5-3,0.5-6.2,1.8-9c1.7-2.2,3.9-3.8,5.8-5.7c-10.8-4.9-21.7-9.7-32.8-13.8
				c0,3.7,1,7.9-1.3,11.2c-7.9,12-15.8,24.1-23.6,36.2c-4.2,6.1-7.8,12.5-12.5,18.2C556.6,95.6,553.7,97.1,551.2,98.8L551.2,98.8z
				 M587.5,77.5c5-8.1,10.1-16.1,15-24.2c0.8-1.5,2-2.7,3.6-3.3c-0.5,5.6-1.8,11.1-2.7,16.7c-1.1,5.9-1.7,12-3.3,17.8
				c-4.1-1.5-8.3-2.9-12.3-4.5C586.8,79.7,586.8,78.2,587.5,77.5z"/>
			<path class="st0" d="M286,35.2c3.6-1.6,7.4-2.9,11.4-3.3c4.6,18.5,9.3,36.9,14,55.4c1.4,4-1.5,7.6-2.3,11.4
				c5.7-0.8,11.2-2.4,16.8-3.6c3.3-0.9,6.9-1.2,9.9-3.1c-2.7-2.6-6.6-4.5-7.4-8.4c-3.6-13.9-7-27.8-10.6-41.7
				c-1.2-4.9-2.7-9.7-3.4-14.7c3.2-0.8,6.4-1.7,9.7-2.3c4.4-1.1,7.4,3.3,11.4,4.1c-1.2-6.7-4-13-5.6-19.6c-1.9,0.1-3.8,0.3-5.7,0.7
				c-16.2,3.6-32.4,7.6-48.2,12.7c0.9,6.7,1.8,13.5,2.8,20.2C282.6,41.9,282.4,36.6,286,35.2L286,35.2z"/>
			<path class="st0" d="M604.5,21.5c2.8,0.3,5.2-1.7,7.6-2.9c3.2,3.9,5.8,8.8,10.6,10.9c4,2,8.8,0.6,12.4-1.7c3-2,6.1-4.4,7-8
				c-2.7-1.1-5.5-2.7-8.5-2.7c-2.2,0.6-4.1,1.8-6,2.9c-3.4-3.4-5.4-8.1-9.6-10.7c-3-2-6.9-3.2-10.2-1.3c-4.2,2.2-8.2,4.9-12.5,6.9
				C597.1,18.3,600.6,21,604.5,21.5z"/>
			<path class="st0" d="M504.4,78.5c1.3-7.7,2.5-15.4,4-23c7,1.1,14.1,1.9,21,3.4c-1,7.7-2.8,15.2-4,22.9c-0.5,4.2-4.6,6.5-7,9.6
				c3.6,1.6,7.6,2,11.4,3c5,1.1,10,2.6,15.1,3.4c-1.1-3.7-4.2-7.2-3.2-11.3c4.2-20.2,7.5-40.6,11.5-60.9c0.7-3.8,4.1-5.9,6-9
				c-8.6-2.1-17.3-4.1-26.2-5.3c0.9,2.6,2.4,5.1,3.3,7.7c0.3,1.9-0.3,3.8-0.5,5.7c-1.3,6.6-2.3,13.3-3.6,19.9
				c-7.1-0.5-14.1-1.9-21-3.3c1.2-7.7,2.5-15.5,3.9-23.2c0.6-3.8,3.8-6.2,6.2-8.9c-4-1.7-8.3-2.1-12.5-2.9
				c-4.7-0.8-9.4-1.7-14.2-1.8c1.4,3.4,4.2,6.7,3.4,10.7c-3.3,19.7-6.5,39.4-9.9,59.1c-0.5,2.3-0.9,4.8-2.7,6.5
				c-1.5,1.6-3,3.1-4.2,4.9c8.8,1.1,17.5,2.8,26.3,3.7C506.3,85.8,503.5,82.4,504.4,78.5L504.4,78.5z"/>
			<path class="st0" d="M372.7,86.5c-1.4-2.1-3.1-4-4.3-6.2c-1.7-3.4-0.2-7.2,0.3-10.7c4.8-1,9.7-1.4,14.6-1.8
				c1.8,0,3.8-0.4,5.5,0.3c1.2,2.5,2.1,5.3,2.2,8.1c-0.2,2.9-1.5,5.6-2.2,8.5c4.1,0.1,8.1-0.1,12.2-0.6c4.5-0.6,9.2-0.1,13.7-0.8
				c1.3-1.2-0.4-2.1-1.2-3.1c-2.5-2.3-4.9-4.9-6-8.2c-6.4-18-12.5-36-18.2-54.2c-0.8-2.6-2-5.2-1.8-8c0.7-2.6,1.9-5,2.7-7.5
				c-4.6-0.2-9.1,0.6-13.7,0.9c-7.6,0.7-15.1,1.6-22.6,2.8c1,3.2,4.8,5.1,4.6,8.7c0,3.1-0.4,6.2-0.8,9.2
				c-2.2,18.2-4.2,36.5-6.4,54.7c-0.3,4.4-3.6,7.8-4.9,11.9c4-0.1,8-1,11.9-1.7C363.2,87.8,368,87.4,372.7,86.5L372.7,86.5z
				 M372.7,20.9c2.1,0.5,2.3,3,2.9,4.7c2.6,9.6,6.1,18.8,8.5,28.5c-4.8,0.8-9.7,1.5-14.5,1.4C371,44,371.3,32.4,372.7,20.9z"/>
			<path class="st0" d="M422.1,82.7c8.9,0.6,17.9,0,26.8,0.4c7.5,0.5,14.9,0.2,22.4,1.2c1.7-5.6,2-11.4,3-17.1
				c0.4-2.4,0.5-4.8,0.4-7.2c-3.6,3-6,8-10.9,9.2c-6.2,0.3-12.4,0.3-18.6-0.3c-0.4-5.9,0-11.9,0.2-17.8c0.5-8.6-0.1-17.3,0.6-25.9
				c0.4-4.9,0.3-9.9,0.6-14.9c0.1-4,4.2-6.1,5.2-9.7c-9-0.4-18.1-0.9-27.1-0.5c1.8,3.8,4.8,7.4,4.2,11.9c-1.2,20.1-0.2,40.3-1,60.5
				C427.9,76.8,423.9,79.3,422.1,82.7L422.1,82.7z"/>
		</g>
	</g>
	<g>
		<path class="st0" d="M109.9,500.7l16.9-7.4c1.6-0.7,2.5-1.4,2.7-2.2c0.2-0.8,0-2.1-0.8-4.1l2.4-1.1l5.3,12l-2.4,1.1
			c-1-1.9-1.9-3.1-2.6-3.4c-0.7-0.3-1.9-0.2-3.4,0.5l-28.7,12.6l-1.7-3.8l18-33.1l-20.3,8.9c-1.6,0.7-2.5,1.4-2.7,2.2
			c-0.2,0.7,0,2.1,0.8,4.2l-2.4,1.1l-5.3-12l2.4-1.1c1,1.9,1.9,3,2.6,3.4c0.7,0.3,1.8,0.1,3.4-0.6l21.8-9.6c1.6-0.7,2.5-1.4,2.7-2.1
			c0.2-0.7,0-2.1-0.8-4.2l2.4-1.1l5,11.4L109.9,500.7z"/>
		<path class="st0" d="M110.2,528.8c-0.9-1.5-1.4-3.1-1.7-4.7c-0.2-1.6-0.1-3.2,0.3-4.9c0.5-1.9,1.3-3.5,2.6-5.1
			c1.2-1.5,2.8-2.8,4.6-3.9c3.7-2.1,7.3-2.8,10.8-2c3.5,0.8,6.3,2.9,8.2,6.2c1.9,3.4,2.4,6.8,1.3,10.2c-1.1,3.5-3.5,6.3-7.1,8.4
			c-1.9,1.1-3.8,1.7-5.7,2c-1.9,0.3-3.8,0.2-5.7-0.4c-1.6-0.5-3.1-1.2-4.4-2.2C112.1,531.6,111,530.3,110.2,528.8z M112.3,527.6
			c0.8,1.3,2,1.9,3.8,1.6c1.7-0.3,4.6-1.6,8.6-3.9c4-2.3,6.6-4.2,7.7-5.5c1.1-1.4,1.3-2.7,0.5-4.1c-0.8-1.4-2-1.9-3.8-1.6
			c-1.7,0.3-4.6,1.6-8.7,3.9c-4,2.3-6.6,4.1-7.7,5.5C111.7,524.9,111.5,526.2,112.3,527.6z"/>
		<path class="st0" d="M120.4,545.1l7.9-5.5l1.3,1.9c-1.5,2.5-2.3,4.7-2.5,6.5c-0.2,1.8,0.1,3.4,1.1,4.8c0.7,1.1,1.6,1.8,2.7,2.1
			c1,0.3,2,0.1,2.9-0.5c1.4-1,1.6-3.3,0.7-7c-0.1-0.4-0.2-0.7-0.2-0.9c-0.9-3.7-1.2-6.5-0.8-8.5c0.4-1.9,1.4-3.5,3.1-4.7
			c2-1.4,4.1-1.8,6.3-1.3c2.2,0.5,4.1,1.9,5.7,4.2c0.8,1.2,1.4,2.6,1.8,4.2c0.4,1.6,0.7,2.5,0.7,2.6c0.2,0.3,0.5,0.5,0.9,0.6
			c0.3,0.1,0.7,0,1.1-0.2l1.2,1.8l-6.8,4.7l-1.3-1.9c1.2-1.9,1.8-3.6,1.9-5.3c0.1-1.6-0.2-3.1-1.1-4.4c-0.8-1.1-1.7-1.9-2.6-2.2
			c-1-0.3-1.9-0.2-2.7,0.3c-1.3,0.9-1.4,3.2-0.4,6.9c0.1,0.4,0.2,0.8,0.3,1c1,3.9,1.4,6.8,1,8.8c-0.4,1.9-1.4,3.5-3.2,4.8
			c-2.2,1.5-4.4,2-6.7,1.6c-2.3-0.5-4.2-1.9-5.8-4.2c-1-1.4-1.8-3.1-2.3-5c-0.5-1.9-0.8-2.8-0.9-2.9c-0.2-0.3-0.5-0.5-0.9-0.6
			c-0.4-0.1-0.8-0.1-1.4,0L120.4,545.1z"/>
		<path class="st0" d="M136.5,567.8l7.4-6.1l1.5,1.8c-1.3,2.6-1.9,4.9-2,6.6c-0.1,1.8,0.4,3.3,1.5,4.7c0.8,1,1.8,1.6,2.9,1.8
			c1.1,0.2,2,0,2.9-0.7c1.3-1.1,1.4-3.4,0.2-7c-0.1-0.4-0.2-0.7-0.3-0.9c-1.2-3.6-1.7-6.4-1.5-8.4c0.2-2,1.1-3.6,2.7-4.9
			c1.9-1.5,3.9-2.1,6.2-1.8c2.3,0.3,4.2,1.6,6,3.7c0.9,1.1,1.6,2.4,2.2,4c0.5,1.6,0.9,2.4,0.9,2.5c0.2,0.3,0.5,0.5,0.9,0.5
			c0.4,0,0.7,0,1.1-0.2l1.4,1.7l-6.4,5.2l-1.4-1.8c1-2,1.5-3.8,1.5-5.4c0-1.6-0.5-3.1-1.5-4.3c-0.9-1.1-1.8-1.7-2.8-2
			c-1-0.3-1.9-0.1-2.7,0.6c-1.2,1-1.1,3.3,0.1,6.9c0.1,0.4,0.3,0.7,0.3,1c1.3,3.8,1.9,6.7,1.7,8.7c-0.2,2-1.1,3.6-2.8,5
			c-2.1,1.7-4.3,2.4-6.6,2.1c-2.3-0.3-4.3-1.5-6.1-3.7c-1.1-1.4-2-2.9-2.7-4.8c-0.7-1.8-1-2.8-1.1-2.8c-0.2-0.3-0.5-0.4-0.9-0.5
			c-0.4-0.1-0.8,0-1.4,0.1L136.5,567.8z"/>
		<path class="st0" d="M167.7,597.4c-2.1-0.1-3.9-0.5-5.5-1.1c-1.6-0.6-2.9-1.5-4-2.6c-1.5-1.5-2.2-3.2-2.2-5.1
			c0-1.9,0.7-3.5,2.1-4.9c2-2,4.5-2.6,7.5-1.8c3,0.8,6.5,3,10.5,6.6l2.7-2.6c1.7-1.6,2.6-3,2.7-4.1c0.1-1.1-0.4-2.3-1.7-3.6
			c-0.5-0.6-1.1-1-1.7-1.2c-0.6-0.3-1-0.3-1.2-0.1c0,0-0.1,0.1-0.1,0.3c0,0.1,0,0.2-0.1,0.2l-0.3,1.3c-0.1,0.3-0.2,0.6-0.4,0.9
			c-0.2,0.3-0.4,0.6-0.7,0.8c-0.7,0.7-1.6,1-2.6,0.9c-1-0.1-1.9-0.6-2.8-1.4c-0.9-0.9-1.3-1.9-1.3-2.9c0-1,0.4-2,1.2-2.8
			c1.4-1.3,3.2-1.7,5.5-1.1c2.3,0.6,4.6,2.1,6.9,4.4c2.7,2.8,4.2,5.5,4.3,8c0.1,2.5-1.1,5-3.6,7.4l-9.4,9.1
			c-0.3,0.3-0.5,0.6-0.6,0.9c0,0.3,0.1,0.5,0.3,0.8c0.2,0.2,0.5,0.3,0.9,0.5c0.4,0.2,0.7,0.3,0.8,0.4c0.1,0.1,0.2,0.3,0.2,0.6
			c0,0.2-0.1,0.4-0.3,0.6c-0.5,0.5-1.5,0.6-2.9,0.2c-1.4-0.4-2.6-1-3.6-2.1c-0.9-0.9-1.4-1.9-1.5-3C166.7,600,167,598.8,167.7,597.4
			z M174.5,590.1c-2.1-1.7-4-2.6-5.7-2.8c-1.6-0.2-3.1,0.2-4.3,1.4c-0.8,0.8-1.3,1.7-1.3,2.6c0,0.9,0.3,1.8,1.1,2.6
			c1.1,1.1,2.3,1.5,3.6,1.2c1.4-0.3,2.9-1.3,4.7-3.1c0.2-0.2,0.4-0.4,0.7-0.7C173.7,591.1,174,590.7,174.5,590.1z"/>
		<path class="st0" d="M224.4,602.1l-1.6,2.1c-1.6-1-2.7-1.4-3.5-1.3c-0.7,0.1-1.6,0.8-2.6,2.1l-6,7.9l10.3,7.8l6-7.9
			c1-1.3,1.5-2.4,1.4-3.1c-0.1-0.7-0.9-1.7-2.2-3l1.6-2.1l14.5,11.1l-1.6,2.1c-1.6-1-2.8-1.5-3.5-1.4c-0.8,0.1-1.6,0.8-2.7,2.1
			l-14.4,18.9c-1,1.3-1.5,2.4-1.4,3.1c0.1,0.7,0.9,1.8,2.3,3l-1.6,2.1l-14.5-11.1l1.6-2.1c1.6,1,2.8,1.4,3.5,1.3
			c0.7-0.1,1.6-0.8,2.6-2.1l6.6-8.7l-10.3-7.8l-6.6,8.7c-1,1.3-1.5,2.4-1.4,3.1c0.1,0.7,0.9,1.7,2.2,3l-1.6,2.1l-14.5-11l1.6-2.1
			c1.6,1,2.8,1.5,3.5,1.4c0.8-0.1,1.6-0.8,2.7-2.1l14.4-18.9c1-1.3,1.5-2.4,1.3-3.1c-0.1-0.7-0.9-1.8-2.2-3l1.6-2.1L224.4,602.1z"/>
		<path class="st0" d="M224,648.2l1.3-2c1,0.4,1.8,0.5,2.3,0.4s1.2-0.9,1.9-2l8.2-13.1c0.7-1.1,0.9-1.9,0.8-2.4
			c-0.1-0.5-0.7-1.1-1.6-1.8l1.3-2.1c1.5,0.8,3.1,1.7,4.7,2.6c1.6,0.9,3.3,1.7,5.1,2.6l-11.6,18.5c-0.7,1.1-1,2-1,2.6
			c0.1,0.6,0.5,1.2,1.3,1.9l-1.3,2L224,648.2z M244.4,618.7c0.6-1,1.5-1.5,2.6-1.7c1.1-0.2,2.2,0.1,3.3,0.8c1.1,0.7,1.8,1.6,2.1,2.7
			c0.3,1.1,0.2,2.1-0.4,3.1c-0.6,1-1.4,1.5-2.5,1.7s-2.2-0.1-3.4-0.9c-1.1-0.7-1.9-1.6-2.2-2.6C243.7,620.6,243.8,619.6,244.4,618.7
			z"/>
		<path class="st0" d="M240.1,658.7l4.6-8.5l2.1,1.1c-0.2,2.9,0.1,5.2,0.7,6.9c0.6,1.7,1.7,2.9,3.1,3.7c1.2,0.6,2.3,0.8,3.3,0.6
			c1.1-0.2,1.9-0.8,2.4-1.8c0.8-1.5,0-3.7-2.5-6.5c-0.3-0.3-0.5-0.5-0.6-0.7c-2.5-2.9-4-5.3-4.6-7.2c-0.6-1.9-0.3-3.8,0.7-5.6
			c1.1-2.1,2.8-3.4,5-4s4.5-0.2,6.9,1.1c1.2,0.7,2.4,1.6,3.5,2.9c1.1,1.2,1.7,1.9,1.8,2c0.3,0.2,0.7,0.2,1,0.1
			c0.3-0.1,0.7-0.3,0.9-0.7l1.9,1l-3.9,7.2l-2-1.1c0.2-2.2,0-4.1-0.7-5.6c-0.6-1.5-1.6-2.7-3-3.4c-1.2-0.6-2.3-0.9-3.3-0.8
			c-1,0.1-1.8,0.7-2.2,1.5c-0.7,1.3,0.2,3.5,2.7,6.3c0.3,0.3,0.5,0.6,0.7,0.8c2.7,3,4.3,5.5,4.9,7.4c0.6,1.9,0.3,3.8-0.7,5.7
			c-1.3,2.4-3,3.8-5.3,4.4c-2.2,0.6-4.6,0.2-7.1-1.1c-1.5-0.8-3-2-4.3-3.4c-1.3-1.4-2-2.1-2.1-2.2c-0.3-0.2-0.6-0.2-1-0.1
			c-0.4,0.1-0.8,0.3-1.2,0.6L240.1,658.7z"/>
		<path class="st0" d="M276.2,649.3l-2.8-1.3l1-2.2c2.2,0.3,4.3-0.1,6.3-1.1c1.9-1,3.9-2.7,5.7-5.2l2.5,1.1l-4.4,9.7l5.5,2.5l-1,2.2
			l-5.5-2.5l-6.5,14.3c-0.7,1.6-1.1,2.9-1.2,3.7c-0.1,0.9,0.2,1.4,0.7,1.7c0.6,0.3,1.4,0,2.3-0.8c0.9-0.8,1.8-2.2,2.8-4.1l2.2,1
			l-0.2,0.3c-1.4,3.2-3.2,5.3-5.2,6.4s-4.3,1.1-6.7,0.1c-2.2-1-3.5-2.4-3.8-4.1c-0.3-1.7,0.2-4.2,1.6-7.3L276.2,649.3z"/>
		<path class="st0" d="M295.3,684.8c-1.6-0.6-3.1-1.4-4.3-2.5c-1.2-1.1-2.2-2.4-2.9-3.9c-0.8-1.7-1.3-3.6-1.3-5.5
			c-0.1-1.9,0.3-3.9,1-6c1.5-4,3.8-6.8,7-8.5c3.2-1.7,6.6-1.8,10.3-0.5c3.6,1.3,6.2,3.7,7.6,7c1.4,3.3,1.4,7-0.1,11
			c-0.7,2-1.8,3.7-3.1,5.2c-1.3,1.5-2.8,2.6-4.6,3.4c-1.6,0.7-3.1,1.1-4.7,1.1C298.6,685.7,297,685.4,295.3,684.8z M296.2,682.6
			c1.5,0.5,2.8,0.1,3.9-1.2c1.1-1.3,2.5-4.2,4.1-8.5c1.6-4.4,2.4-7.4,2.4-9.2c0-1.8-0.7-2.9-2.2-3.4c-1.5-0.5-2.8-0.1-3.9,1.2
			c-1.1,1.3-2.5,4.2-4.1,8.6c-1.6,4.3-2.4,7.4-2.4,9.1C294,680.9,294.7,682,296.2,682.6z M304.3,654.6l-1.9-0.7l8.9-3.4
			c0.6-0.2,1.1-0.4,1.4-0.4c0.3,0,0.6,0,0.9,0.1c0.6,0.2,1,0.6,1.2,1.1c0.2,0.5,0.3,1,0,1.6c-0.2,0.4-0.4,0.8-0.8,1
			c-0.4,0.2-0.9,0.4-1.5,0.4L304.3,654.6z"/>
		<path class="st0" d="M312.7,690l0.6-2.3c1.1,0.1,1.9,0,2.3-0.3c0.5-0.3,0.9-1.2,1.2-2.5L321,670c0.3-1.3,0.4-2.1,0.1-2.6
			c-0.3-0.4-1-0.8-2.1-1.2l0.6-2.3c1.9,0.4,3.7,0.8,5.4,1.1c1.6,0.3,3.2,0.6,4.7,0.8l-1.7,6c1.4-1.7,2.8-2.8,4.3-3.4
			c1.4-0.6,2.9-0.7,4.5-0.3c1.5,0.4,2.7,1.2,3.4,2.4c0.7,1.2,0.9,2.4,0.5,3.8c-0.3,1.2-1,2-1.9,2.6c-0.9,0.5-2,0.6-3.2,0.3
			c-0.9-0.3-1.7-0.7-2.1-1.4c-0.5-0.7-0.6-1.4-0.4-2.2c0-0.1,0.1-0.2,0.1-0.3c0-0.1,0.1-0.2,0.2-0.3l0.5-1c0,0,0.1-0.1,0.1-0.2
			c0-0.1,0.1-0.1,0.1-0.2c0.1-0.2,0-0.4-0.1-0.6c-0.1-0.2-0.3-0.3-0.6-0.4c-1-0.3-2.2,0.4-3.6,2.1c-1.4,1.7-2.5,4-3.3,6.9l-2,7.3
			c-0.4,1.3-0.4,2.3-0.1,2.9c0.3,0.6,0.9,1.1,1.8,1.3l1.2,0.3l-0.6,2.3L312.7,690z"/>
		<path class="st0" d="M337.7,696.6l0.5-2.3c1.1,0.1,1.9-0.1,2.3-0.5c0.4-0.4,0.8-1.2,1.1-2.5l3.2-15.1c0.3-1.2,0.2-2.1-0.1-2.5
			c-0.3-0.5-1-0.8-2.1-1.1l0.5-2.4c1.7,0.3,3.5,0.5,5.3,0.8c1.8,0.2,3.7,0.5,5.7,0.7l-4.5,21.3c-0.3,1.3-0.3,2.2,0,2.8
			c0.3,0.5,0.9,1,1.9,1.4l-0.5,2.3L337.7,696.6z M346.7,661.8c0.2-1.1,0.8-1.9,1.8-2.5c1-0.6,2.1-0.7,3.4-0.4
			c1.3,0.3,2.3,0.9,2.9,1.8c0.7,0.9,0.9,1.9,0.7,3c-0.2,1.1-0.8,1.9-1.8,2.4c-1,0.5-2.1,0.6-3.4,0.4c-1.3-0.3-2.3-0.8-3-1.7
			C346.7,663.9,346.4,662.9,346.7,661.8z"/>
		<path class="st0" d="M372.2,699.1c-1.7,1.2-3.4,2.1-5,2.6c-1.6,0.5-3.2,0.7-4.7,0.5c-2.1-0.3-3.7-1.2-4.9-2.6
			c-1.2-1.5-1.6-3.2-1.4-5.2c0.4-2.8,2-4.8,4.8-6c2.8-1.2,6.9-1.7,12.3-1.4l0.5-3.7c0.3-2.3,0.2-4-0.4-4.9c-0.6-1-1.8-1.6-3.6-1.8
			c-0.8-0.1-1.5-0.1-2.1,0.1c-0.6,0.2-0.9,0.4-1,0.6c0,0,0,0.1,0.1,0.3c0,0.1,0.1,0.2,0.1,0.2l0.6,1.2c0.1,0.3,0.2,0.6,0.2,0.9
			s0,0.7,0,1.1c-0.1,1-0.6,1.8-1.5,2.3c-0.8,0.6-1.9,0.8-3.1,0.6c-1.2-0.2-2.2-0.7-2.9-1.5c-0.7-0.8-0.9-1.8-0.8-2.9
			c0.3-1.9,1.5-3.3,3.7-4.3c2.2-1,4.9-1.2,8.1-0.8c3.9,0.5,6.7,1.7,8.3,3.6c1.6,1.9,2.2,4.6,1.7,8l-1.8,12.9c-0.1,0.5,0,0.8,0.1,1.1
			c0.1,0.2,0.4,0.4,0.7,0.4c0.2,0,0.6,0,1-0.1c0.5-0.1,0.8-0.2,0.9-0.2c0.2,0,0.4,0.1,0.5,0.3c0.1,0.2,0.2,0.4,0.2,0.6
			c-0.1,0.7-0.8,1.4-2.2,2c-1.3,0.6-2.7,0.8-4.1,0.6c-1.3-0.2-2.3-0.6-3-1.4C373,701.7,372.5,700.6,372.2,699.1z M373,689.1
			c-2.7,0-4.8,0.4-6.2,1.3c-1.4,0.8-2.3,2.1-2.5,3.7c-0.2,1.1,0,2.1,0.6,2.8c0.5,0.7,1.4,1.2,2.5,1.3c1.5,0.2,2.7-0.2,3.6-1.3
			c0.9-1.1,1.5-2.9,1.8-5.3c0-0.3,0.1-0.6,0.1-0.9C372.9,690.4,372.9,689.9,373,689.1z"/>
		<path class="st0" d="M427.7,699.6c0,1.3,0.1,2.2,0.5,2.7c0.4,0.5,1.1,0.8,2.1,1l0,2.4l-13.5-0.2l0-2.4c1.1-0.1,1.8-0.4,2.2-0.8
			c0.4-0.5,0.6-1.4,0.6-2.7l0.2-11.6c0-2.1-0.2-3.5-0.6-4.3c-0.4-0.8-1.1-1.2-2.2-1.2c-1.5,0-2.7,0.7-3.6,2.2
			c-0.9,1.5-1.4,3.6-1.4,6.3l-0.1,8.4c0,1.4,0.2,2.3,0.5,2.8c0.4,0.5,1.1,0.8,2.2,0.9l0,2.4l-13.5-0.2l0-2.4
			c1.1-0.2,1.8-0.5,2.2-0.9c0.4-0.4,0.6-1.3,0.6-2.7l0.2-15.4c0-1.2-0.2-2.1-0.5-2.5c-0.4-0.4-1.1-0.6-2.3-0.7l0-2.4
			c2-0.1,3.8-0.2,5.5-0.3c1.7-0.1,3.3-0.2,4.8-0.4l-0.1,6.2c1.4-1.9,2.9-3.3,4.4-4.2s3.2-1.4,5-1.3c2.5,0,4.3,0.9,5.4,2.7
			c1.1,1.8,1.6,4.7,1.5,8.7L427.7,699.6z"/>
		<path class="st0" d="M451.5,700.2c-1.4,1.6-2.8,2.8-4.3,3.6c-1.5,0.9-3,1.4-4.5,1.5c-2.1,0.2-3.9-0.3-5.4-1.5
			c-1.5-1.2-2.3-2.8-2.5-4.8c-0.3-2.8,0.9-5.1,3.3-6.9c2.5-1.8,6.4-3.2,11.7-4.1l-0.3-3.7c-0.2-2.3-0.7-3.9-1.5-4.7
			c-0.8-0.8-2.1-1.1-3.9-1c-0.8,0.1-1.5,0.3-2,0.6c-0.6,0.3-0.8,0.6-0.8,0.8c0,0,0.1,0.1,0.2,0.3c0.1,0.1,0.1,0.1,0.1,0.2l0.8,1.1
			c0.2,0.2,0.3,0.5,0.4,0.8c0.1,0.3,0.2,0.7,0.2,1c0.1,1-0.2,1.9-0.9,2.6c-0.7,0.7-1.6,1.2-2.9,1.3c-1.2,0.1-2.3-0.2-3.1-0.8
			c-0.8-0.6-1.3-1.5-1.4-2.7c-0.2-1.9,0.7-3.6,2.6-5c1.9-1.4,4.5-2.3,7.7-2.6c3.9-0.4,6.9,0.2,8.9,1.7c2,1.5,3.2,4,3.5,7.5l1.2,13
			c0,0.5,0.2,0.8,0.3,1c0.2,0.2,0.5,0.3,0.8,0.3c0.2,0,0.6-0.1,1-0.4c0.4-0.2,0.7-0.3,0.8-0.4c0.2,0,0.4,0.1,0.6,0.2
			c0.2,0.2,0.3,0.4,0.3,0.6c0.1,0.7-0.5,1.5-1.7,2.4c-1.2,0.9-2.5,1.4-3.9,1.5c-1.3,0.1-2.4-0.1-3.3-0.7
			C452.9,702.6,452.1,701.6,451.5,700.2z M439.9,674l-1.7,0.1c0.1-2,0.6-3.5,1.4-4.5c0.8-1.1,1.9-1.7,3.4-1.8c0.3,0,0.6,0,0.8,0
			c0.3,0,0.5,0,0.8,0.1l2.8,0.5c0.1,0,0.3,0,0.4,0c0.1,0,0.3,0,0.6,0c0.6-0.1,1-0.3,1.3-0.6c0.3-0.4,0.6-0.9,0.7-1.6l1.7-0.1
			c-0.1,1.9-0.5,3.4-1.3,4.5c-0.8,1.1-1.9,1.7-3.2,1.8c-0.3,0-0.5,0-0.7,0c-0.2,0-0.5-0.1-0.7-0.1l-2.7-0.4c-0.3,0-0.5-0.1-0.8-0.1
			c-0.2,0-0.4,0-0.6,0c-0.6,0.1-1,0.3-1.4,0.6C440.3,672.7,440,673.2,439.9,674z M450.1,690.3c-2.6,0.6-4.6,1.5-5.8,2.6
			c-1.2,1.1-1.8,2.5-1.6,4.2c0.1,1.1,0.5,2,1.2,2.6c0.7,0.6,1.6,0.8,2.7,0.7c1.5-0.1,2.6-0.8,3.2-2.1c0.6-1.2,0.8-3.1,0.6-5.6
			c0-0.3-0.1-0.6-0.1-0.9C450.3,691.6,450.2,691,450.1,690.3z"/>
		<path class="st0" d="M479.9,700.6c-1.7,0.3-3.4,0.3-5,0c-1.6-0.3-3.1-1-4.5-1.9c-1.6-1.1-2.9-2.5-3.9-4.1c-1-1.7-1.7-3.5-2.1-5.7
			c-0.8-4.2-0.2-7.8,1.8-10.9s4.8-4.9,8.6-5.6c3.8-0.7,7.2,0.1,10.1,2.2c2.9,2.2,4.7,5.4,5.5,9.5c0.4,2.1,0.4,4.1,0,6
			c-0.4,1.9-1.1,3.7-2.3,5.2c-1,1.4-2.2,2.5-3.5,3.4C483.2,699.8,481.6,700.3,479.9,700.6z M479.5,698.3c1.5-0.3,2.4-1.3,2.8-3
			c0.3-1.7,0.1-4.9-0.8-9.4c-0.8-4.6-1.7-7.6-2.6-9.1c-0.9-1.5-2.1-2.1-3.6-1.9c-1.5,0.3-2.5,1.3-2.8,3c-0.3,1.7-0.1,4.9,0.8,9.5
			c0.8,4.5,1.7,7.6,2.6,9.1C476.7,697.9,477.9,698.5,479.5,698.3z"/>
		<path class="st0" d="M523.6,694.5c0.5,1.4,1,2.2,1.6,2.5c0.6,0.3,1.6,0.2,2.9-0.2l0.6-0.2l0.7,2.3l-14.2,4.6l-0.7-2.3
			c1-0.5,1.6-1,1.8-1.6c0.2-0.5,0.1-1.4-0.3-2.7l-8.2-25.4c-0.4-1.2-0.8-1.9-1.3-2.1c-0.5-0.3-1.3-0.2-2.5,0.1l-0.7-2.3
			c1.5-0.6,3-1.2,4.6-1.8c1.6-0.6,3.2-1.4,4.9-2.2l1.6,4.9c0.3-1.9,1-3.4,2-4.7c1-1.2,2.4-2.1,4-2.7c3.2-1,6.2-0.6,9,1.2
			c2.8,1.9,4.9,4.8,6.2,8.9c1.3,4,1.4,7.6,0.2,10.8c-1.2,3.2-3.3,5.3-6.5,6.3c-1.6,0.5-3.2,0.7-4.6,0.4c-1.4-0.3-2.6-0.9-3.6-2
			L523.6,694.5z M525.8,685.7c1.5-0.5,2.3-1.7,2.5-3.8c0.2-2-0.3-4.8-1.4-8.3c-1.1-3.5-2.4-6-3.7-7.5c-1.3-1.5-2.8-2.1-4.2-1.6
			c-1.5,0.5-2.4,1.8-2.6,3.8c-0.2,2,0.3,4.8,1.4,8.2c1.1,3.4,2.4,5.9,3.7,7.5C522.9,685.7,524.3,686.2,525.8,685.7z"/>
		<path class="st0" d="M556.7,677.5c-1.6,0.7-3.2,1.1-4.9,1.1c-1.6,0-3.2-0.2-4.8-0.8c-1.8-0.7-3.4-1.7-4.7-3.1
			c-1.4-1.4-2.5-3.1-3.3-5c-1.7-3.9-1.9-7.6-0.7-11c1.2-3.4,3.6-5.9,7.1-7.4c3.6-1.5,7-1.6,10.3-0.1c3.3,1.5,5.8,4.2,7.5,8.1
			c0.8,2,1.3,3.9,1.4,5.9c0.1,2-0.3,3.8-1,5.6c-0.6,1.6-1.5,2.9-2.7,4.1C559.7,675.9,558.3,676.8,556.7,677.5z M555.7,675.3
			c1.4-0.6,2.1-1.8,2-3.5c-0.1-1.8-1-4.7-2.9-9c-1.8-4.3-3.4-7-4.6-8.3c-1.2-1.3-2.5-1.6-4-1c-1.4,0.6-2.1,1.8-2,3.6
			c0.1,1.8,1.1,4.8,2.9,9c1.8,4.2,3.4,7,4.6,8.3C553,675.6,554.3,675.9,555.7,675.3z"/>
		<path class="st0" d="M566.7,628.7c1.9-1,3.7-2.2,5.4-3.4c1.8-1.2,3.5-2.5,5.1-3.8l16.5,30.2c0.6,1.1,1.2,1.7,1.7,1.9
			c0.5,0.2,1.2,0,2.3-0.6l0.6-0.3l1.2,2.2c-1.7,0.9-3.2,1.9-4.6,2.9s-2.7,2-3.8,3.1l-3-5.5c0,2.3-0.4,4.2-1.2,5.7
			c-0.8,1.5-2,2.7-3.6,3.6c-2.9,1.6-5.9,1.8-9,0.5c-3.1-1.3-5.6-3.8-7.7-7.6c-2-3.7-2.8-7.3-2.2-10.6c0.6-3.3,2.3-5.8,5.2-7.4
			c1.5-0.8,3-1.2,4.5-1.2c1.5,0,2.8,0.4,3.9,1.3l-4.5-8.3c-0.6-1.1-1.2-1.7-1.9-1.8c-0.7-0.1-1.8,0.3-3.3,1.1l-0.4,0.2L566.7,628.7z
			 M584,660.7c1.4-0.8,2-2.1,1.8-4.2c-0.2-2-1.2-4.6-2.9-7.8c-1.8-3.2-3.4-5.4-5-6.7c-1.6-1.3-3.1-1.5-4.5-0.8
			c-1.4,0.8-2,2.2-1.8,4.2c0.2,2,1.2,4.7,2.9,7.8c1.7,3.2,3.4,5.4,5,6.6C581.1,661.2,582.6,661.4,584,660.7z"/>
		<path class="st0" d="M616.3,626.8l-13.5,9.1c0.1,0.2,0.3,0.4,0.4,0.7c0.1,0.2,0.4,0.6,0.7,1c1.9,2.8,3.7,4.6,5.4,5.4
			c1.7,0.8,3.4,0.7,5-0.5c1.3-0.9,2.2-2.1,2.7-3.7c0.5-1.6,0.7-3.5,0.4-5.6l2.5-0.6c0.6,2.8,0.4,5.3-0.5,7.6
			c-0.9,2.2-2.6,4.2-5.1,5.8c-1.4,1-3,1.6-4.6,2c-1.6,0.3-3.2,0.4-4.8,0.1c-1.9-0.3-3.7-1.1-5.3-2.2c-1.6-1.1-3-2.6-4.3-4.4
			c-2.4-3.5-3.3-7.1-2.7-10.7c0.5-3.6,2.4-6.5,5.6-8.6c3.1-2.1,6.2-2.7,9.5-1.9c3.3,0.8,6,2.9,8.3,6.3L616.3,626.8z M601.4,634
			l6.5-4.4l-0.3-0.4c-1.7-2.6-3.2-4.3-4.5-5c-1.2-0.8-2.4-0.8-3.6,0c-1.1,0.8-1.6,1.8-1.3,3.3C598.5,628.9,599.5,631.1,601.4,634z"
			/>
		<path class="st0" d="M652.2,615.4l-1.6-1.7c0.7-0.8,1-1.5,1-2.1c0-0.6-0.5-1.4-1.5-2.4l-7.9-8.5c-1.4-1.5-2.5-2.4-3.4-2.7
			c-0.8-0.3-1.6-0.1-2.4,0.6c-1.1,1-1.5,2.4-1.1,4.1c0.4,1.7,1.5,3.6,3.3,5.5l5.7,6.2c0.9,1,1.7,1.5,2.3,1.6
			c0.6,0.1,1.3-0.2,2.2-0.8l1.6,1.7l-9.9,9.2l-1.6-1.7c0.7-0.9,1-1.6,0.9-2.2c0-0.6-0.5-1.4-1.4-2.4l-10.5-11.3
			c-0.8-0.9-1.5-1.4-2.1-1.4c-0.6,0-1.3,0.3-2.1,1.1l-1.7-1.8c1.4-1.4,2.6-2.8,3.7-4c1.1-1.2,2.2-2.4,3.2-3.6l4.2,4.5
			c-0.3-2.3-0.2-4.3,0.3-6.1c0.5-1.8,1.4-3.2,2.6-4.4c1.3-1.2,2.7-1.9,4.1-1.9c1.4-0.1,2.9,0.4,4.4,1.4c-0.2-2.3-0.1-4.2,0.4-5.9
			c0.5-1.7,1.4-3.1,2.6-4.2c1.8-1.7,3.8-2.3,5.8-1.8c2,0.5,4.4,2.3,7.1,5.2l6.9,7.4c0.9,1,1.7,1.5,2.2,1.6c0.6,0.1,1.3-0.2,2.2-0.8
			l1.6,1.7l-9.8,9.1l-1.6-1.7c0.7-0.8,1-1.5,1-2.1c0-0.6-0.5-1.4-1.5-2.4l-7.9-8.5c-1.4-1.5-2.5-2.4-3.3-2.7
			c-0.8-0.3-1.6-0.1-2.4,0.6c-1.1,1-1.5,2.4-1.1,4.1c0.4,1.7,1.5,3.5,3.4,5.5l5.7,6.2c0.9,1,1.7,1.6,2.3,1.6
			c0.6,0.1,1.3-0.2,2.1-0.8l1.6,1.7L652.2,615.4z"/>
		<path class="st0" d="M686.2,581.7c-1.1,1.3-2.4,2.4-3.9,3.1c-1.4,0.8-3,1.2-4.7,1.4c-1.9,0.2-3.8-0.1-5.6-0.7
			c-1.8-0.6-3.6-1.6-5.2-3c-3.2-2.8-5.1-5.9-5.5-9.5c-0.4-3.6,0.6-6.9,3.1-9.8c2.5-3,5.6-4.5,9.2-4.6c3.6-0.1,7.1,1.2,10.3,3.9
			c1.6,1.4,2.9,2.9,3.8,4.7s1.4,3.6,1.6,5.5c0.1,1.7-0.1,3.3-0.6,4.8C688.1,579,687.3,580.4,686.2,581.7z M684.3,580.2
			c1-1.2,1.1-2.5,0.2-4.1c-0.9-1.5-3-3.8-6.6-6.8c-3.5-3-6.1-4.8-7.8-5.4c-1.7-0.6-3-0.3-4,0.9c-1,1.2-1.1,2.6-0.2,4.1
			c0.9,1.5,3.1,3.8,6.6,6.8c3.5,3,6.1,4.8,7.8,5.4C682,581.6,683.3,581.4,684.3,580.2z"/>
		<path class="st0" d="M697,567.2l-1.9-1.4c0.5-1,0.7-1.7,0.5-2.3c-0.2-0.6-0.8-1.2-1.9-2l-12.5-9c-1.1-0.8-1.9-1.1-2.4-1
			c-0.5,0.1-1.1,0.6-1.8,1.6l-2-1.4c1.1-1.7,2-3.2,2.9-4.7c0.9-1.4,1.7-2.8,2.4-4.1l5.1,3.7c-1.1-1.9-1.6-3.6-1.7-5.2
			c-0.1-1.6,0.4-3,1.3-4.3c0.9-1.3,2.1-2.1,3.4-2.3c1.4-0.3,2.6,0,3.8,0.8c1,0.7,1.6,1.6,1.7,2.7c0.2,1.1-0.1,2.1-0.8,3.1
			c-0.6,0.8-1.3,1.3-2.1,1.5c-0.8,0.2-1.6,0.1-2.2-0.4c-0.1,0-0.1-0.1-0.2-0.2c-0.1-0.1-0.2-0.2-0.3-0.3l-0.7-0.8
			c0,0-0.1-0.1-0.1-0.1c0,0-0.1-0.1-0.2-0.2c-0.2-0.1-0.4-0.2-0.6-0.1c-0.2,0-0.4,0.2-0.5,0.4c-0.6,0.8-0.3,2.2,0.8,4.1
			c1.1,1.9,2.9,3.7,5.3,5.4l6.2,4.4c1.1,0.8,2,1.2,2.7,1.1c0.7,0,1.3-0.4,1.9-1.3l0.8-1l1.9,1.4L697,567.2z"/>
		<path class="st0" d="M712.7,545.1l-2-1.2c0.4-1,0.5-1.8,0.3-2.3c-0.2-0.5-0.9-1.2-2-1.9l-13.2-8c-1.1-0.7-1.9-1-2.4-0.8
			s-1.1,0.7-1.7,1.7l-2.1-1.3c0.9-1.7,1.8-3.4,2.5-4.9c0.8-1.5,1.5-2.9,2.1-4.3l5.4,3.3c-1.2-1.8-1.9-3.5-2.1-5.1
			c-0.2-1.6,0.1-3,1-4.4c0.8-1.4,1.9-2.2,3.2-2.6c1.3-0.4,2.6-0.2,3.8,0.5c1.1,0.6,1.7,1.5,1.9,2.5c0.2,1,0,2.1-0.6,3.1
			c-0.5,0.8-1.2,1.4-2,1.7c-0.8,0.3-1.6,0.2-2.2-0.2c-0.1,0-0.2-0.1-0.2-0.2c-0.1-0.1-0.2-0.2-0.3-0.3l-0.8-0.8c0,0-0.1-0.1-0.1-0.1
			c-0.1,0-0.1-0.1-0.2-0.1c-0.2-0.1-0.4-0.2-0.6-0.1c-0.2,0.1-0.4,0.2-0.5,0.5c-0.5,0.9-0.2,2.2,1.1,4c1.3,1.8,3.2,3.5,5.7,5l6.5,4
			c1.2,0.7,2.1,1,2.7,0.9c0.7-0.1,1.3-0.5,1.8-1.4l0.7-1.1l2,1.2L712.7,545.1z"/>
		<path class="st0" d="M725.3,493.6l-7.3,14.6c0.2,0.1,0.4,0.2,0.7,0.4c0.2,0.1,0.6,0.3,1.1,0.6c3,1.5,5.5,2.2,7.4,2.1
			c1.9-0.1,3.2-1.1,4.1-2.9c0.7-1.4,0.9-2.9,0.6-4.6c-0.3-1.7-1.1-3.4-2.4-5.1l1.9-1.8c1.9,2.1,3,4.4,3.3,6.8
			c0.3,2.4-0.2,4.9-1.6,7.6c-0.8,1.6-1.8,2.9-3,3.9c-1.2,1.1-2.6,1.9-4.1,2.4c-1.8,0.6-3.7,0.9-5.7,0.7c-2-0.2-3.9-0.8-5.9-1.7
			c-3.8-1.9-6.3-4.6-7.6-7.9c-1.3-3.4-1-6.8,0.7-10.3c1.7-3.3,4.1-5.4,7.3-6.3c3.2-0.9,6.7-0.5,10.3,1.4L725.3,493.6z M715.8,507.2
			l3.5-7l-0.4-0.2c-2.8-1.4-4.9-2.1-6.4-2.2c-1.5-0.1-2.5,0.5-3.1,1.8c-0.6,1.2-0.5,2.4,0.4,3.5
			C710.7,504.1,712.7,505.5,715.8,507.2z"/>
		<path class="st0" d="M739.8,495.1l-2.2-0.9c0.2-1.1,0.2-1.8-0.1-2.4c-0.3-0.5-1.1-1-2.3-1.5l-14.3-5.8c-1.2-0.5-2.1-0.6-2.5-0.4
			c-0.5,0.2-0.9,0.8-1.4,1.9l-2.2-0.9c0.6-1.9,1.2-3.6,1.7-5.2c0.5-1.6,1-3.1,1.4-4.6l5.8,2.4c-1.5-1.6-2.4-3.2-2.9-4.7
			c-0.4-1.5-0.3-3,0.3-4.5c0.6-1.5,1.5-2.5,2.8-3.1c1.3-0.6,2.5-0.6,3.9-0.1c1.1,0.5,1.9,1.2,2.3,2.2c0.4,1,0.4,2.1-0.1,3.2
			c-0.4,0.9-0.9,1.6-1.7,2c-0.8,0.4-1.5,0.4-2.3,0.1c-0.1,0-0.2-0.1-0.3-0.1s-0.2-0.1-0.3-0.2l-0.9-0.6c0,0-0.1-0.1-0.1-0.1
			c-0.1,0-0.1-0.1-0.2-0.1c-0.2-0.1-0.4-0.1-0.6,0c-0.2,0.1-0.3,0.3-0.4,0.5c-0.4,1,0.2,2.2,1.7,3.8c1.5,1.6,3.7,2.9,6.4,4l7.1,2.9
			c1.2,0.5,2.2,0.7,2.9,0.5c0.7-0.2,1.2-0.7,1.5-1.7l0.5-1.2l2.2,0.9L739.8,495.1z"/>
	</g>
</g>
</svg>
