<?xml version="1.0" encoding="utf-8"?>
<!-- Generator: Adobe Illustrator 27.9.0, SVG Export Plug-In . SVG Version: 6.00 Build 0)  -->
<svg version="1.2" baseProfile="tiny" id="Camada_2_00000003789412202897732450000009578718767225503108_"
	 xmlns="http://www.w3.org/2000/svg" xmlns:xlink="http://www.w3.org/1999/xlink" x="0px" y="0px" viewBox="0 0 944.2 944.6"
	 overflow="visible" xml:space="preserve">
<g>
	<g>
		<circle id="SVGID_1_" cx="-1814.1" cy="472.3" r="472.1"/>
	</g>
	<image width="945" height="945" xlink:href="AF6B3A9E.png"  transform="matrix(1 0 0 1 -2287 -0.4)">
	</image>
</g>
<g>
	<path fill="#FFFFFF" d="M-1593.3,569.4c-8.7-5.6-13.3-16-13.3-25.9c-0.2-111.4,0-222.8-0.2-334c-14.5,0-29-0.4-43.6,0
		c-9.1-0.2-12.7,9.5-17.4,15.6c-18.9,25.9-50.8,38.4-81.9,40.9c-0.2,11.6-0.2,23.2,0,34.9c15.6,0.2,31.3-0.8,47.1,0.2
		c8.3,2.5,10.6,12.7,10.8,20.3c0,74.7,0,149.6,0,224.3c0.4,9.8-5.2,18.7-13.3,23.9c-6.6,4.1-14.5,3.1-21.8,3.5
		c-0.2,11.6-0.2,23,0,34.6c51,0,102.1,0.2,152.9-0.2c0-11.4,0-23,0-34.4C-1580.5,572.3-1587.5,572.7-1593.3,569.4z"/>
	<path fill="#FFFFFF" d="M-1899.3,347.4c-28.8-0.2-58.7,5.6-83,22c0.4-18.7,3.5-37.3,4.8-56c1.5-9.3,0.8-19.1,2.7-28.2l1.2-1.2
		c27.4-0.4,55,0.4,82.6,0c16.6,0,34.2-1.5,49.4,6.6c6.4,4.1,12,9.3,18.9,12.7c1.9-4.1,3.7-8.5,4.1-13.3c3.3-24.5,6.8-49.2,13.9-73
		c1.7-5.4,2.7-10.8,3.5-16.4c-12.4-0.6-22,9.5-34.4,9.5c-64.7,3.1-129.4-0.4-194.2,1.2c-3.7,73-8.1,146-12.2,219.1
		c19.1,2.5,37.8,6.4,56.8,9.3c4.1-8.3,8.1-17,14.9-23.4c19.9-16.2,51.7-19.9,72.2-2.9c12.2,11,19.1,27.4,20.5,43.8
		c2.1,21,1,42.3-3.9,62.6c-4.6,19.1-20.3,35.5-39.8,39c-17.2,3.9-36.5-2.9-47.1-17c-11-14.3-11.4-33.2-14.1-50.2
		c-22,8.7-44.8,15.1-67.4,21.8c-5.4,1.2-4.1,7.9-3.9,12c1,26.1,15.4,50.6,36.1,66c23.6,18,53.7,24.9,83,26.8
		c41.9,2.1,85.7-11.8,114.9-42.7c23-23,34.9-55.8,35.3-88c1.7-30.7-3.9-62.9-21.8-88.8C-1825.9,367.1-1862.4,347.6-1899.3,347.4z"/>
</g>
<g>
	<path fill-rule="evenodd" fill="#203B8E" d="M922.7,753.4c-12.9,77-92.5,156.7-169.6,169.6v0c-83.3,12.7-166.6,19.8-249.9,21.2
		c-102.9,1.7-205.8-5.1-308.7-20.7c-1.2-0.2-2.3-0.3-3.5-0.5c-77-12.9-156.8-92.5-169.6-169.6C-7.2,566-7.2,378.6,21.5,191.2
		C34.3,114.2,114,34.5,191,21.7c46.6-7.1,93.3-12.5,139.9-16c28.9-2.2,57.9-3.8,86.8-4.6c111.8-3.3,223.6,3.6,335.4,20.7
		c77,12.9,156.7,92.5,169.6,169.6C951.4,378.6,951.4,566,922.7,753.4z"/>
	<g>
		<path fill-rule="evenodd" fill="#FFFFFF" d="M347.6,377.6c-4.7,1.3-4.2,0.7-5.4,5.4h-4.1c-0.5-2-0.9-4.2-2-5.5l-3.5-2.7
			c-1.4,6-3.4,4.9-3.4,9.1c0,2.9,0.7,9.9,0.7,14.1c8.5-5.7,6.1-1.8,13-7.5C350.2,384.6,348.4,386.4,347.6,377.6z M224.9,394
			L224.9,394c3.2-4.8,2.4-1.3,4.5-7.9c4.1-13.1,9.1-16.3,9.2-23.5c-3.3,2.4-6.5,9.2-8.6,13.2l-8.6,23.7c-1.4,10.2-2.4-2-5,14.5
			c-0.3,1.8-1.2,5-1.7,7.8c-3.7,19.5-3.8,48.1-5.5,60.1c-0.9,5.8,0.1,11.3,6.3,13c0.7-3.2,1.3-4,1.3-8.3l-5.4-1.2
			c5.1-0.1,3.8,1.2,8.2-4.2c0.3-0.3,1-1.2,1.2-1.5c4.6-6.1,1.7-1.6,2-18.7c0.1-6.9,3.2-7.6,4.8-12.5c4.4-13.2,2.4-19.1,2.5-24.8
			l1.7-18.7L224.9,394z M439.2,598.7l13.3-9.9c-8.7-2-15.6-1.8-23.2-5.4c2-2.8,4.4-3.8,7.5-6.2l3.7-3.1c3-3.4,1.3,0.1,2.4-4.4
			c-33,7.7-8.6-12.1-4.1-31.3c-9,0.2-27.9,6.2-35.1,6.8l-1.6-16.3c-8.4,0.7-7.9,4.9-15,6.8c-2.6-11.1-9.2-9.6-15.9-11.4
			c-4.6-1.2-8-7-14.1,4.5c-9.6-6.4-4.3-8.8-12.2-10.9c-3.4,2.5-3.9,5.1-4.1,10.9c-6.1-1.4-7.1-2.9-11.3-6.4
			c-5.2-4.3-14.7-15.1-18.8-15.1c0.7,8.3,0.7,12,2.6,20.4c1.3,6.1,3,8.8,3.1,14.7c-7.1,0-8.1-1.5-13.6-2.7c0.8,3,0.4,1.3,2,3.5
			l1.9,2.2c1.6,2.2,1.8,3,3,5.2h-19.1c3.1,4.7,7.6,7.4,12,11.2c6.9,6,6,4.1,11.2,12c-5.7,2.8-8.6,2.8-12.2,8.2
			c3.9,1.9,12.2,4.2,12.2,9.5c0,5.3-12.1,17.6-13.6,23.2c13,0,20.9,0.3,31.3,2.7v17.7c5.9-1.6,5.9-4.8,13.6-5.4
			c5.7,11.8,4,26.2,8.2,34.1c9.8-3.5,12.5-17.4,20.4-23.2c4.9,3.3,7.3,9.2,13.6,10.9c0.1-4,1.4-11,2.7-13.6c16.8,3.9,10.3,10.4,30,0
			c-0.7-1.5-5.4-16.1-5.4-17.7c0-3.2,11.3-3.9,17.7-5.4c-7.2-6.2-7.8-5.7-8.2-10.9C432.5,602,430.5,606.2,439.2,598.7z M468.9,343.5
			c1.3,0.5,2.4,0.5,3,0.8l1.8,1.3c0.1-0.2,0.4,0.4,0.6,0.6c0.2-8.6,3.9-8.3,4.1-17.7C472.4,330.2,470.7,335.7,468.9,343.5z
			 M224.9,394L224.9,394c3.2-4.8,2.4-1.3,4.5-7.9c4.1-13.1,9.1-16.3,9.2-23.5c-3.3,2.4-6.5,9.2-8.6,13.2l-8.6,23.7
			c-1.4,10.2-2.4-2-5,14.5c-0.3,1.8-1.2,5-1.7,7.8c-3.7,19.5-3.8,48.1-5.5,60.1c-0.9,5.8,0.1,11.3,6.3,13c0.7-3.2,1.3-4,1.3-8.3
			l-5.4-1.2c5.1-0.1,3.8,1.2,8.2-4.2c0.3-0.3,1-1.2,1.2-1.5c4.6-6.1,1.7-1.6,2-18.7c0.1-6.9,3.2-7.6,4.8-12.5
			c4.4-13.2,2.4-19.1,2.5-24.8l1.7-18.7L224.9,394z M347.6,377.6c-4.7,1.3-4.2,0.7-5.4,5.4h-4.1c-0.5-2-0.9-4.2-2-5.5l-3.5-2.7
			c-1.4,6-3.4,4.9-3.4,9.1c0,2.9,0.7,9.9,0.7,14.1c8.5-5.7,6.1-1.8,13-7.5C350.2,384.6,348.4,386.4,347.6,377.6z M439.2,598.7
			l13.3-9.9c-8.7-2-15.6-1.8-23.2-5.4c2-2.8,4.4-3.8,7.5-6.2l3.7-3.1c3-3.4,1.3,0.1,2.4-4.4c-33,7.7-8.6-12.1-4.1-31.3
			c-9,0.2-27.9,6.2-35.1,6.8l-1.6-16.3c-8.4,0.7-7.9,4.9-15,6.8c-2.6-11.1-9.2-9.6-15.9-11.4c-4.6-1.2-8-7-14.1,4.5
			c-9.6-6.4-4.3-8.8-12.2-10.9c-3.4,2.5-3.9,5.1-4.1,10.9c-6.1-1.4-7.1-2.9-11.3-6.4c-5.2-4.3-14.7-15.1-18.8-15.1
			c0.7,8.3,0.7,12,2.6,20.4c1.3,6.1,3,8.8,3.1,14.7c-7.1,0-8.1-1.5-13.6-2.7c0.8,3,0.4,1.3,2,3.5l1.9,2.2c1.6,2.2,1.8,3,3,5.2h-19.1
			c3.1,4.7,7.6,7.4,12,11.2c6.9,6,6,4.1,11.2,12c-5.7,2.8-8.6,2.8-12.2,8.2c3.9,1.9,12.2,4.2,12.2,9.5c0,5.3-12.1,17.6-13.6,23.2
			c13,0,20.9,0.3,31.3,2.7v17.7c5.9-1.6,5.9-4.8,13.6-5.4c5.7,11.8,4,26.2,8.2,34.1c9.8-3.5,12.5-17.4,20.4-23.2
			c4.9,3.3,7.3,9.2,13.6,10.9c0.1-4,1.4-11,2.7-13.6c16.8,3.9,10.3,10.4,30,0c-0.7-1.5-5.4-16.1-5.4-17.7c0-3.2,11.3-3.9,17.7-5.4
			c-7.2-6.2-7.8-5.7-8.2-10.9C432.5,602,430.5,606.2,439.2,598.7z M468.9,343.5c1.3,0.5,2.4,0.5,3,0.8l1.8,1.3
			c0.1-0.2,0.4,0.4,0.6,0.6c0.2-8.6,3.9-8.3,4.1-17.7C472.4,330.2,470.7,335.7,468.9,343.5z M347.6,377.6c-4.7,1.3-4.2,0.7-5.4,5.4
			h-4.1c-0.5-2-0.9-4.2-2-5.5l-3.5-2.7c-1.4,6-3.4,4.9-3.4,9.1c0,2.9,0.7,9.9,0.7,14.1c8.5-5.7,6.1-1.8,13-7.5
			C350.2,384.6,348.4,386.4,347.6,377.6z M468.9,343.5c1.3,0.5,2.4,0.5,3,0.8l1.8,1.3c0.1-0.2,0.4,0.4,0.6,0.6
			c0.2-8.6,3.9-8.3,4.1-17.7C472.4,330.2,470.7,335.7,468.9,343.5z M436.8,577.2l3.7-3.1c3-3.4,1.3,0.1,2.4-4.4
			c-33,7.7-8.6-12.1-4.1-31.3c-9,0.2-27.9,6.2-35.1,6.8l-1.6-16.3c-8.4,0.7-7.9,4.9-15,6.8c-2.6-11.1-9.2-9.6-15.9-11.4
			c-4.6-1.2-8-7-14.1,4.5c-9.6-6.4-4.3-8.8-12.2-10.9c-3.4,2.5-3.9,5.1-4.1,10.9c-6.1-1.4-7.1-2.9-11.3-6.4
			c-5.2-4.3-14.7-15.1-18.8-15.1c0.7,8.3,0.7,12,2.6,20.4c1.3,6.1,3,8.8,3.1,14.7c-7.1,0-8.1-1.5-13.6-2.7c0.8,3,0.4,1.3,2,3.5
			l1.9,2.2c1.6,2.2,1.8,3,3,5.2h-19.1c3.1,4.7,7.6,7.4,12,11.2c6.9,6,6,4.1,11.2,12c-5.7,2.8-8.6,2.8-12.2,8.2
			c3.9,1.9,12.2,4.2,12.2,9.5c0,5.3-12.1,17.6-13.6,23.2c13,0,20.9,0.3,31.3,2.7v17.7c5.9-1.6,5.9-4.8,13.6-5.4
			c5.7,11.8,4,26.2,8.2,34.1c9.8-3.5,12.5-17.4,20.4-23.2c4.9,3.3,7.3,9.2,13.6,10.9c0.1-4,1.4-11,2.7-13.6c16.8,3.9,10.3,10.4,30,0
			c-0.7-1.5-5.4-16.1-5.4-17.7c0-3.2,11.3-3.9,17.7-5.4c-7.2-6.2-7.8-5.7-8.2-10.9c8.7-1.8,6.6,2.3,15.3-5.1l13.3-9.9
			c-8.7-2-15.6-1.8-23.2-5.4C431.4,580.6,433.7,579.6,436.8,577.2z M229.4,386.1c4.1-13.1,9.1-16.3,9.2-23.5
			c-3.3,2.4-6.5,9.2-8.6,13.2l-8.6,23.7c-1.4,10.2-2.4-2-5,14.5c-0.3,1.8-1.2,5-1.7,7.8c-3.7,19.5-3.8,48.1-5.5,60.1
			c-0.9,5.8,0.1,11.3,6.3,13c0.7-3.2,1.3-4,1.3-8.3l-5.4-1.2c5.1-0.1,3.8,1.2,8.2-4.2c0.3-0.3,1-1.2,1.2-1.5c4.6-6.1,1.7-1.6,2-18.7
			c0.1-6.9,3.2-7.6,4.8-12.5c4.4-13.2,2.4-19.1,2.5-24.8l1.7-18.7l-6.8-10.9l0,0C228.2,389.2,227.3,392.7,229.4,386.1z M865.7,369.2
			c-1.5-1.5-3.8-2.6-6.2-4.9c-4.1-3.9-6.5-7.1-11.1-10.7c-10-7.7-31.9-29.1-46.5-40.7l-59.4-51c-7.8-9.3,4.4,0.6-15.8-18.3
			c-14.2-13.3,0.8-12.9-14.3-18.4c-11.2-4.1-0.4-3.8-9.9-11.9c-8.2-7-7-4.2-17-3.4c-5.3-7.9-10.6-15.2-16.1-23.4
			c-7.2-10.9-9.6-12.5-15.3-24.3c6.2-0.5,9.5-2.6,13.8-5.2c5.9-3.6,8.8-2.5,14.8-5.7c-5.8-8.6-9.3,0.5-19.1,1.4
			c-9.5-6.4-8.3-15.1-16.3-20.4c-5.5,1.5-11.1,17.6-29.4,6.3l-26.4-17.2c-6.1-4-11.7-7.8-18-12l-69.9-47.3
			c-20.3-10-42.7-26.5-59.6-41.3L417.7,1c-28.9,0.9-57.9,2.4-86.8,4.6c-0.2,0.5-0.5,1.2-0.7,1.8c-7.1,17.3-11.8,37.1-16.8,47.3
			L292,117.8c-20.8,49-21.1,92.5-31.2,139.2l-13,49.7c-1.8,2.5,0,0.3-2.7,2.7c-38.2,34.2-63.2,104.6-76.4,152.5
			c-2.8,10-7,23.1-10.4,33.2c-6,17.9-27.5,115.2-30,138.9c-2.7,24.6-13.1,62.1,7.1,86.7c10.1,12.3,3.2-0.6,14.2,18.5l13.7,19
			c13.6,15.2,25.3,29.6,40.5,44c8,7.6,3,6.4,2.2,34.7l-11.3,86.6c102.9,15.5,205.8,22.4,308.7,20.7c-1.2-10.2-2.4-22.4-4.1-31.4
			c-1.3-6.5-2.2-10.5-3.3-17.1c-1-5.9-2.6-10.5-2.6-17.9c2.6-4.5,6.8-2.5,13.6-2.7c5.6-0.2,8.9-1.6,13.6-2.7c1-1.8,0.7-1.5,1.4-4.1
			v-10.9c-0.3-4.7-0.5-9.8,1.4-13.6c1.4-3.8-0.3-2.3,5.2-4.4l90.2-33.8c4-2.3,5.4-6.9,8.2-10.9c20.6,1.7,3.5,1.2,35-11.3
			c36.9-14.7,34.6-12.2,25-59.7c-11-54.3-10.2-110.8-27.2-171.8c-2.3-8.3-9.7-33.5-9.7-40.7c-1.2-1.4-0.5,0.1-2.2-3.3l-3.3-13.1
			c0.2,0.2,1.6,1.3,1.8,1.4l1.2,0.7c0,0,0.5,0.3,0.6,0.4l1.3,0.8c5.8,3.3,6.6,2.7,11.3,0.7c7.1-2.4-2.5-0.1,4.4-5.1
			c5.3-3.8,2.2-0.2,8.7-1c5.3-0.6,11.4-5.4,15.3-7.5l1.5,5.4c6.2-4.2,6.1-5.8,9.5-12.2c13.6-1.1,15.8-12.8,25.6-18
			c5.3-2.9,2.9,0.8,9.4-12.4c3.3-6.6,3.3-8.6,7.3-14.5c4.8-3.2,8-8.5,9.5-15l0.1-0.1l1.4-2.7c1.3-1.4,0,0.3,1.7-2.4
			c1-1.6,1-1.9,1.9-3.5c4.4-7.5,8.6-8.4,8.6-20c5.7,3.8,20.6,27.5,29,36.4c3.2,3.4,8,8,9.2,12.6c6.5-0.1,7-1.3,10.8-4.2
			c12.3-9.5,23.7-25.7,38.7-40.4c3.2-3.2,4.3-4,7-8c2.3-3.3,5.3-6.7,6.3-10.1C866.8,376.2,871.7,375.1,865.7,369.2z M633.7,215.4
			c3,4.1,1,1.5,5.4,4.2c1.4,0.9,0.5,0.1,2.5,1.6c1.5,1.1,2,1.6,3,2.4v4.1c-5.8,1.4-5.3,0.9-9.2,4.4c-3.6,3.2-4.6,3.9-8.5,6.5
			c-6.2-1.7-14.2-8.5-17.3-14.1c-5.2-9.5,0.1-17.9,7.7-20C623.8,206.2,628.8,212.1,633.7,215.4z M566.9,146c2.7-1.1,0.9-0.2,2.3-0.6
			l16.7-3.5c-0.9,3.6-1.2,4-2.7,6.8c-6.4-3.1-7.6-3.2-13.6,0v6.8c3.6,1.7,1.5,1.3,6.8,1.4c-1.3,5-1.6,5.9-5.9,1.9
			C566.5,154.8,566.9,151.3,566.9,146z M336.6,189.4c5.5-16.9,16.2-93.4,19.3-103.3c1.2-3.8,3.1-7,4-11c3.5-4,6.8-6.9,10.1-11.7
			c3-4.5,6.4-10.2,10.3-12.8c-0.9,4-1.4,4.2-1.4,9.5c-0.2,0.3-0.3,0.4-0.4,1l-1.3,5.5c-3.1,18.3,2.1,10,0.7,23.8c-0.6,6,1,8.5,1,16
			c0,11.1,0.2,7.8,3.7,15.4c2.6,5.7,1.1,7.7,4,13.7c2.6,5.3,3.2,8.2,5.5,13.6c5.4,12.6,5.7,1.9,5.8,21.4l1.4,8.1
			c2.3,4.5,0.1,2.5,4,5.4c1,3.8,1.1,2.7,2.8,6.7c0.7,1.6,0.6,1.7,1.7,3.7c1.6,2.8,0.9,1.6,2.2,3.2c0.7,3.2,1.6,7,2.6,9.7
			c1.5,4.2,2.8,5.2,2.9,10.8c-10.8,2.9-7.7,11.5-42.4,18.9c-7.6,1.6-16.3,5.4-22.2,9.1c-7,4.3-12.2,8.5-22.6,8.8
			C318.3,235.7,330.4,208.4,336.6,189.4z M417.1,173.2c-2.3-5.5,2.7-1.6-2.3-7.1c-3.4-3.8-3.1-0.9-4.5-6.5c5.6,0.5,7,3.1,9.5,6.8
			c5.2-1.2,5.5-3.3,8.2,1.4l-3.5,1.7C412.9,173.1,422.4,171,417.1,173.2z M359.7,263.1c-1.5,0.7-2.3,1.1-2.8,1.3l0.1,0.1
			c-0.4,0.1-0.5,0.1-0.1-0.1l-1.4-1.8c-1.5-2,3.6-0.1-2.6-2.1c2-2.8,4.4-4.4,8.2-5.4c1.2,2.4,1.6,4.4,2.7,6.8
			C357.7,262.5,361.6,262.2,359.7,263.1z M306.7,267.2c-4.4,6.6-8.7,5.1-16.2,8.4c-2.6,1.1-4.8,2.7-7.6,4.7c-4,2.9-3.2,3.5-7.6,4.7
			C278,275,293.8,267.2,306.7,267.2z M391.8,735.6c0,1.3-0.2,3.4-0.7,7c-0.5,3.6-1.3,8.8-1.8,11.7c-0.5,2.9-0.7,3.6-2.1,3.9
			c-1.5,0.3-4.2,0.2-8-0.1c-3.8-0.3-8.8-0.9-12.8-1.4c-4-0.5-6.9-1-9.4-1.2c-2.4-0.2-4.4-0.1-6,0.1c-1.6,0.1-2.9,0.3-3.5,0.5
			c-0.7,0.2-0.8,0.3-1.1,1.1c-0.3,0.7-0.7,2-1.3,4.3c-0.6,2.2-1.4,5.3-2.1,9.1c-0.7,3.8-1.4,8.2-2.1,11.4s-1.3,5.2-1.7,7
			c-0.4,1.8-0.5,3.5-0.6,7.2c-0.1,3.7-0.3,9.5-0.3,15.8c-0.1,6.3-0.1,13.1,0,18.2c0.1,5.1,0.2,8.7,0.3,11.1s0,3.6-0.2,5.1
			c-0.2,1.4-0.5,3-0.6,4.4c-0.2,1.3-0.2,2.4-0.2,4c0,1.6,0,3.8-0.4,4.8c-0.5,1-1.5,0.9-3.7,0.6c-2.2-0.3-5.7-0.9-9-1.5
			c-3.3-0.6-6.4-1.2-8.7-1.6c-2.3-0.4-3.9-0.7-5.1-1c-1.2-0.3-2-0.5-2.1-7.2l-0.1-0.1c-0.1-6.7,0.3-19.8,0.6-29.6
			c0.3-9.8,0.3-16.3,0.4-21.2c0-4.9,0.1-8.4,0.4-12.4c0.3-4,0.8-8.6,1.4-13c0.6-4.3,1.4-8.3,1.9-11.2c0.5-2.9,0.7-4.6,0.9-6
			c0.1-1.5,0.2-2.7,0.1-3.6c-0.1-0.9-0.3-1.6-0.9-2.1c-0.6-0.6-1.5-1.1-7.9-2.6c-6.4-1.5-18.1-3.9-24.2-5.1
			c-6.1-1.2-6.6-1.2-6.9-1.6c-0.3-0.4-0.5-1.1-0.3-3c0.2-1.9,0.9-4.9,1.6-8.7c0.7-3.8,1.6-8.5,2.3-10.8c0.7-2.3,1.4-2.2,3.2-1.8
			c1.8,0.4,4.7,1.1,8.2,2c3.5,0.9,7.5,2.1,12.1,3.2c4.6,1.1,9.8,2.2,12.9,2.9c3.1,0.6,4,0.8,4.6,0.7c0.6-0.1,1-0.4,1.6-3
			c0.6-2.5,1.6-7.2,2.4-10.6s1.6-5.7,2.2-7.6c0.6-1.9,1.1-3.5,1.5-4.6c0.4-1.1,0.7-1.8,1.3-2.1c0.5-0.3,1.2-0.3,2.5,0.1
			c1.3,0.4,3.3,1.2,5.4,2.1c2,0.8,4.1,1.7,6,2.3c1.9,0.6,3.6,1,5.4,1.3c1.8,0.3,3.6,0.5,5.2,0.8c1.6,0.2,2.9,0.5,3.6,0.8
			c0.7,0.3,0.7,0.6,0.4,2c-0.3,1.3-0.9,3.6-1.6,6.6c-0.7,2.9-1.6,6.4-2.1,8.9c-0.6,2.5-0.9,4-0.7,5.1c0.1,1.1,0.7,1.7,2.6,2.4
			c1.8,0.7,4.9,1.4,10.7,2.1c5.8,0.7,14.3,1.5,19.2,1.9c4.9,0.4,6.2,0.4,6.9,0.6C391.8,733.9,391.8,734.3,391.8,735.6z M592.8,583.3
			c-5.5,0-8.2-13.6-8.2-13.6v0c0,0,3.7-7.5,4.1-8.1c1.5-2.6,3-5.1,5.4-6.8c0.5,5.9,1.2,8.6,1.3,16.4
			C595.6,578.4,598.8,583.3,592.8,583.3z M594.2,490.6c-1.9-6.9-1.7-2.3-8.2-5.4c-0.5-5.6-1.4-3-1.4-8.2c0-5.9,1.6,1,0.7-7.5
			c-0.1-1-1-5.9-1.3-6.9c-1.8-5.6-4.8-4.8-4.8-11.5c0-1,6.2-5.2,8.2-8.2h0c-4.4-6.6-3.3-2.9-5.3-12.4c-1.4-6.7-2.9-6.5-4.2-12.1
			c14.3,7.6,20.8,24.9,24.3,40.2c1.3,5.9,3,11.6,3,18.4C595.8,479.5,601.2,485.5,594.2,490.6z M660.6,287.9c2.3,16.5-4.8,56-8,74.4
			l-12.1,43.8c-1.4,3.3-2.6,6.2-3.9,9.7c-1.7,4.6-3.2,6.2-4.3,10.7c-11.3,0-5.6-3.5-15.1-4.1c-8.4-0.5-6.8,2.1-15.1-1.1
			c-13.5-5.2-10.1-10.6-55.7-23.3c-18-5-11.1-13.9-24.5-15c6.4,12,1.3,15.1-4.1,23.2c-4.5-1.5-0.6-2.7-8.2-2.7
			c-0.1-5.9-3.1-9.2-5.6-13.8l2.9-3.9c-9.1,0-9.5-2.1-15-5.4c-6.3-3.7-8.3-2.7-17.7-2.7L473,379l-5.4-27.3
			c-0.8,9.4-2.7,19.6-12.2,20.4c-2.7-4-3.9-7-4.1-13.6c-4.8,3.2-5.4,4.5-5.4,12.2h-2.7c-0.1-6.4-1.6-7.2-4.1-10.9
			c3.1,0.7,3.1,1.1,6.8,1.4c-0.7-3.1-1.3-2.9-0.9-4.8c0.3-1.3,0.4-1.9,0.4-2c0,0.2-0.1,1.4,0.6,0.6l6.6-8.7
			c-4.1-4.7-2.3-7.6-9.5-8.2c-1.5,3.6-0.1,1.8,0,8.2l-6.2-4.2c-1.6-0.4-2.2-0.2-2.3,0.2c2.6,3.4-0.3,1.1,0,0
			c-0.2-0.2-0.3-0.4-0.5-0.6c-1-1.2-0.5-1.1-0.6-3.7c-2.9,2-4,3.1-8.2,4.1l-0.2-1.3c0,0-0.1-0.5-0.1-0.6c-1.1-2.7-5.4-4.8-10-3.1
			c-9.4,3.5,5.3,5.5-10.1,9.1c3.3-8.1,0.9,1.8,5.4-6.8c-5.9-1.3-1.6-0.5-8.2,0c2,4.2,1.4,5,1.4,10.9c-7.2,1.7-14.7-1-18.4-6.3
			l-3.4-4.6c5.2-2.8,6.2-0.9,6.8-6.8c-3.1,2.1-2.7,2.6-8.2,2.7l-0.3-1.3c-1.3-2.7-2-1.8-6.5-1.4c-0.6-7.2-1.7-2.4,0-9.5
			c-9.3,2.2-5.3,0-10.9-4.1c-2.6,6.3-5,0.6-12.2,0c-1.3,5.4,0.1,7.5,0,13.6c7.2,1.7,6.8,3.7,6.8,12.2c-1,0.2-6.9,1.5-7.8,1.9
			c-8.1,3.7,5.8,4.4-4.9,8.5c-1.8,0.7-6.1,1.5-7.8,1.9c-7.7-16.1-4.9-9.4-2.7-17.7c-5.8,3-10.2,7.7-15,12.2l-1.4,1.4
			c-2.1,2.4-3.8,6.2-4.5,10.3c-1.6,9.5,3.6,53,4.6,64.7c5.2-3.5,5.5-5.3,11.8-1.1l6,3.8c4.6,2.8,3.1,1.1,2.6,2.7
			c-4.9,2.3-17.7-1.4-23.2-1.4c-1.6-3.4-0.2-2.4-3.4-3.7l-3.4-1.7c-0.5,5.9,0.2,2.4-2.7,6.8c-3.5-2.3-4.3-2.3-5.4-6.8
			c6.4-1.7,12-9.6,13.6-16.4c-16.2-8.6-14.9,3.1-25.9-17.7c2.8-4.3,6.5-8,9.3-12.5c4.8-7.6,1.2-5.8,8.4-12c-3.1-0.7-3.1-1.1-6.8-1.4
			c-4,6-4,11.2-9.8,16.1c-7.7,6.4-10.1,0.4-18.8,0.3c2.3-10.1,7.9-8.4,12.2-15c-10.1,2.3-15.4,11.4-25.9,12.2
			c0.9-10.5,17.3-17.1,25.3-22.4c5.4-3.5,21.1-12.4,24.5-16.4c1.7-2.1,1-0.5,2-3.4c-4.9,2.6-7,3.4-15.2,2.9c-12.4-0.8-5-3.6-2.6-7
			c-6,0.5-4.4,1.2-7.8,4.2l-1.8,1.3c-5.3,3.6-9.6,10.7-13.2,16.6c-2.9,4.6-5.8,10.1-9.4,13.7c-24.3,24.7-15.4,19.9-18.2,52.7
			c-2.7,32.5,1.4,13.1,1.4,42.3c7.5-0.6,5.7-2.9,10-3.7c8.6-1.6,1.5,1.5,8.6,1.5c3.7,0,7.3-3.6,8.8-3.6c3.9,0.1,2.6,3.9,2.6,8.5
			c0.3-0.1,0.7-0.4,0.9-0.5c4.8-2.1,6.6,1.5,10-3.6c-9.4-2.5,0.1-5.8-9.5-6.8c0.2-6.9-0.3-3.8,3.3-5.3c1.4-0.6,1.2-0.4,0.9-0.2
			c0.2-0.1,0.5-0.2,0.9-0.4c0.2-0.1,0.6-0.3,0.8-0.5l3.7-3.2c6,1.4,16.2,8,21.1,11.6c6.4,4.7,4.7,10.5,1.4,16.3
			c-2,3.6-1,0.6-2.1,4.7c2-1.1,6-4.5,7.2-1.1c1.4,3.9-2.4,2.2-3.1,7.9c5.6-1.3,8.6-3.6,12.2,1.4c-7.5,1.7-5.2-2-6.8,2.7
			c10.9,0.2,4,5.2,16.3,5.4c-0.9,3.7-1.8,4.8,0,8l9.6,6.8c20.3,7.8,71.6,7.5,92.2,2.5c14-3.4,2.9-6.5,35.8-6.5
			c-1.3,3.5-2.2,4.1-5.7,5.2c-6.1,1.9-2.5-2.6-6.6,3c4.8,0.4,11.9,3.8,15.9,5.9c6,3,7.1,4.8,14.1,6.4c2.3-8.7,2.9,0.3,4.9-7.4
			c1.1-4.3-1.2-4-3.5-7.6c10-15-2.2-7.3-14.6-9.9c-6.2-1.3-3.7-2.4-14-2.3c-8.2,0-7.4,1-10.9-4.1c9-4.3,12.8,5.3,15-4.1h4.1
			c2.2,5.9-0.1,2,3.6,1.5c3.8-0.5,3.5-1.5,8,1.2c4.6,2.8,7.5-2.4,14.1,0.2c6.1,2.4,2.8,3.1,1.5,8c2.3,1.5,3.8,2.7,6,4.9
			c2.8,2.8,1.5,2.3,4.9,4.6c-0.5-6.5-2.7-10.3-2.7-17.7c3.4,0.8,5.5,1.8,8.2,2.7c11.9,3.8,8.5,4,19,9.6c7.1-4.8,6-5.3,9.8-10.6
			c0.2-0.3,1.8-1.9,2.6-2.9c3.7-4.8,0.4-5.3,8.1-5.5l-13.6,27.3c6.4,4.3,7.6,5.6,8.3,13.4c0.5,4.8,0.8,4.4,1.6,9.4
			c1,6.3,0.2,1.7-0.4,8.5c0.4,0.1,2.7,0.7,3.1-0.9c0.1-0.4,0.6-0.4,1-0.5c1.8,6.7,8.4,10.5,6.8,17.1c-1.7,7.1-3.3,7.2-8.6,8.2
			c-4.5,0.9-8.8,2.5-11.2,6.5c-2,3.2-3.3,4.6-7.4,4.9c-2.6-6.3,6.8-4.6-2.7-5.4c-1.7,4.8-3.7,2.6-5.8,7.7l-2.4,8.6
			c6.2,1.6,5.1,5.4,10.9,2.7c2,5,0.1,0.9,0.1,2.7c0,0.7-0.1,1.1-0.1,1.4c6.3-0.5,12.5-7.2,16.8-11.7c0.3-0.3,1-1.2,1.3-1.4l7-8
			c3-4.2,4.3-4,4.8-10.2l3.9,0.1l2.9,9.5h4.1l5.6-12.1c1-2.2,1.5-3.9,3.1-6.4c1.2-2,2.3-3.2,3.6-4.6c0,21.7-3.7,12.1-7.4,25.3
			c-1.6,5.6,0.4,10.2-1.9,14.5c-0.9,1.5-2.8,2.9-4.2,4l-1.5,1.2c-0.2,0.2-0.5,0.4-0.7,0.6l-8.3,8.1c-0.6,0.6-1.6,1.5-2.1,1.9
			c-12.5,10.8-37.9,15.8-54.2,27.5c-7.5,5.4-15.2,6-23.1,9.6l-71.4,25.3c-26.1,14.8-26.5,7.1-37.3,9l-10.8,3.3
			c-10.5,1.3-19.2,0.2-27.1-2.8c-5.5-2.1-13.6-11.2-17.1-15.5c-7.2-8.9-12.1-20.9-18.6-30.4c-40.5-45.8-53.3-36-70.2-53.9
			c-7-7.4-13.6-74.2-10.5-80.8c-5.3-0.4-6.3-2-8.8-6.2c-1.9-3-3-5.8-4-9.6c-1.2-4.7-1.2-8.6-0.1-13.4c3.7-16,7.8-22.3,0-41.1
			c-0.6-1.4-0.4,0.4-0.8-2.3c-0.4-2.8,1.4-1.5-0.3-3.9c-2.7-3.7,0.2,5-2.3-2.4c5.3-2.6,3.5,0.4,6.8-4.1c-0.9-0.4-6.6,0.3-7.2-1
			c-0.2-0.4-0.7-0.2-1-0.4c12.3-3.3,9.5-14.9,9.5-24.5c-4.1,2.8-10.4,8.3-15,9.5c1.3-5.5,6.8-15.2,9.9-20
			c4.8-7.6,7.9-12.5,10.2-20.9c0.2-0.6,0.2-0.9,0.2-1c-0.3,0.3-0.1-0.2,0,0c0.1-0.1,0.3-0.5,0.7-1.1l8.1-13.5
			c3.2-4.5,6.7-11.2,11.6-13c2,4.2,1.4,5,1.4,10.9c8.1-0.2,10.1-4.4,14.7-8.5c13-11.7,28-21.5,48-21.5c0.9-3.7,0.6-3.1,2.7-5.4
			c-1.4-5-3-3.7-3.8-8.5c-0.9-5.2,0.6-3.8,1.1-9.2l1.3-0.2c0,0,0.6-0.1,0.7-0.2c0.2,0,0.6-0.1,0.7-0.2c0.2-0.1,0.6-0.2,0.7-0.3
			c2.7-1.4,1.8-1,3.3-3.2c-11.4-0.2,1.1-6.8,3.1-9.2c12.3-14.7,10.1-9.8,30.5,4.3c40.2,27.8,52,19.8,94.6,19.9l27.3-1.4
			c6.5-0.2,6.7,1.3,13.5,1.5l25.7,3.1c6.8,1.4,3.6-0.2,11.2-0.4l0.5,5.6c-0.2,4-0.9,3.1-3.2,6.6h-10.9c1.8,1.6,1.5,1.7,4.4,2.5
			c8.3,2,10.9-2.5,20.1-2.5l5.4,10.9c0,16-1.4,27-1.4,42.2c9.6-2.6,5.9-13.4,8.2-23.2c4.1-1.7,2.2-0.3,6.8,2.7
			c0-8.6-3.4-11.1-6.9-23.1c-2.4-8.3,0.1-22-1-27.7c-2-10.8-6.5-13.2-10.3-21.1c-8.5-17.6-7.9-38.5-49-45c-31-4.9-17.2-8.1-32.3-14
			c-7.2-2.8-5.8,0.5-10.9-5.4v-1.4c0-5.4,0-10,1.3-13.7c1.8-5.3,3.9-5,6.9-9.4c-0.6-7-3.9-8.3-5.1-14c-6-29.1-9-2.9-18.6-38.7
			c-5.5-20.7-13.1-43.8-13.1-64.5c-5.2-1.4-2.6-2.1-10.9-4.1v-2.7c10.6,0,4.3-2.1,12.2-2.7c0.7,3.1,1.1,3.1,1.4,6.8
			c1.1-1.7,0.5,0,1.1-3c0.3-1.5,0.3-2.2,0.4-3.7c0.1-2.4-0.1-5.7-0.1-8.3l5.4-1.4c6.9,0,22.4,14.6,31,20.9
			c12.8,9.5,7.1,6.6,14.3,14.3c2.8,3,13.6,11.5,17.4,12.5c3.8,5.8,11.4,10.3,17.7,13.6c2.1,1.8,0.6,0.5,3.2,2.3
			c8.9,5.9,55.4,38.9,59.5,40l56.1,40.7c1.8,1.2,2,1.6,3.9,2.9c-4,7.5-6,5.5-8.4,14.7c-4,15-9.3,2.6-12,12.5c6.8,0,6.1-1.2,12.2-1.4
			c7.6,14.4,25.1,25.6,38.4,15.3c5.6-4.4,4.3-8.1,10.6-9.8c7.8,4.2,8.6,8,15,12.2C666.6,257.5,655.5,250.2,660.6,287.9z
			 M569.7,417.1c4.2,2.8,3,4.1,8.2,5.4c0,10.1-1.4,16.3-1.4,24.5c-4.5-2.4-3.6-2-6.8-5.5c-5-5.4-3.9,0.2-4.2-8.1l-4.3,1.9v0
			c-1.4,0.2-1.5,0.1-3.9-0.4c-12-2.6-13.6-7.9-6.8-22c8.9,2.4,0.6,9.2,16.4,5.4c1.7,3.6,1.2,4.8,4.1,8.2
			C571,421.2,570.6,421.1,569.7,417.1z M511.1,411.6c-1.6,6.8-4,9.4-12.2,9.5l5.4-5.5c0.2-0.2,0.5-0.4,0.7-0.6
			c0.2-0.2,0.5-0.4,0.7-0.6c0.3-0.2,1.4-0.9,1.7-1C508.5,412.8,510.1,412.1,511.1,411.6z M455.1,421.2c6.3,0.5,2.4-1.5,5.4,2.7
			c-2.9,1.2-4.4-0.3-7.1,0.7c-5.6,2.1-7.9,13.9-11.4,17.5c-2.1,2.1-2.1,2.5-5.6,2.7c-6.7,0.3-11.4-1.6-15.7-2.8
			c-9-2.6-32.6-1.8-43.2-1.7c-18,0.1-10.1-2-19.1-2.8v-2.7l0,0c15.4,0,23.1-1.5,34.2-5.3c9-3.1,22-5.1,29.8-8.3
			c14.3-6,39.4-18.8,40.9-36.8h5.4c0,9.1-2.4,8.7-9.4,19.3C453.9,412,460.1,410.9,455.1,421.2z M354.3,402.1
			c-6.7,4.5-1.2,4.2-9.7,3.1c-5.7-0.7-7.7-1.7-13.5-1.7c1.3,12.1,12.2,4.5,8.2,21.8c-5.4-1.5-6.3-5.6-9.3-9.7
			c-7.9-10.6-6.9-13.2-9.7-25.8c-1.2-5.7-2.3-9.1,1.8-13c5.8-5.5,5.8-1.3,10.4-6c14.5-14.5,13.6-7.8,23.1-15.2l3.7-1.9
			c0,0,3.5-0.1,6-0.6c0,10.8,0,3.4-2.8,7c-2.6,3.2,2.6,2.2-2.6,3.9v-4.1c-6.4,0.5-8,3.6-13.1,4.1c-2.6,0.2-0.9-1.2-4.6,1.4
			c4.2,11.7,4,8.4,6.8,9.5c-0.7-3.2-1.3-4-1.4-8.2c4.5,1.2,1.4-0.3,5,3.2c9.2,8.7,7.4,6,10.6,14c2.1,5.3,4.5,5.3,8.9,7.4
			c3.8,1.8,7.2,3.6,11.1,5.2c22.8,9.4,22,13.6,50.2,7c0-4,0.3-5.5,0.7-8.8c2.4-21.6,1-7.1-2.1-18.4c15.7,8.3,6.8,7.3,15,5.4
			c-1.4,6.5,0.4,2.1-0.5,7.9c-0.5,3.1-1.4,3.3-2.2,7l5.4,1.5c5.2-3.8,2-5.4,8.2-9.5c-4.3,18.3-22.2,22.2-35.6,24.3
			c-31.5,5.1-39.5,26.7-54.3,11.1l9.5-15l-5,1.3c0,0-0.5-0.1-0.7-0.2c-0.2,0-0.6-0.2-0.7-0.2c-8-1.4-1,0.4-8.6,0.4
			c-3.5,0-1.4-0.9-6.8-1.4C355.6,403.6,356.1,405.7,354.3,402.1z M317.6,361.1c1.3-5.7,4.3-10.2,10.9-10.8
			c0.7,8.5,5.6,18.3-7.3,12.8c-0.3-0.1-0.7-0.3-0.9-0.5C316.9,361.1,316.8,360.9,317.6,361.1z M362.5,372.1
			c-4.6-2.4-2.6-0.1-5.4-4.1c4-1.9,4.4-1.5,8-4l1.5,5.4c-2.8,0.3-3.7,0.1-4,0.1C362.7,369.6,363.2,370.2,362.5,372.1z M474.1,298
			l-1-1.5c-1.7-1.2-0.6-0.4-2.9-0.6c3.3-4.9,1.7-4.1,6.8-6.8c1.9,3.9,0.8,5.6,2.7,9.5h-5.4v0C474.2,298.4,474.1,298,474.1,298z
			 M498.8,267.2c5.8,1.5,11.8,11.4,1.4,12.2C500.2,272.6,499.2,272.5,498.8,267.2z M522,294.5h4.1c1.8,6.8,2.7,1.5,2.7,12.2
			C521.6,305.1,522,303,522,294.5z M749.5,404.9c-5.7-4.2-3.3-10.9-2.7-17.7c2.9,1.4,1.2,1,5.4,1.4
			C749.3,394.5,752.4,398.9,749.5,404.9z M748.5,376.6c-0.9,0.3-1.8,0.4-3.1,1c-3.4,1.4-1.1,0.3-2.7,1.4l-5.4,4.2
			c-3.8,6.8,0.5,15.7-3,26.9c-2.9,9.3-9.2,9.4-13.4,27.5l-1.3,2.8c-0.5,1.4-1,3-1.3,4.2c-2.2,7.1-5.8,16.8-13.8,18.9
			c0-11.8,7.7-20.9,9.2-31.7c6.2-45-1.1-49.4-1.1-75.9c0-4.8-1.1-37,1.4-40.9c4.2,2.8,7.6,9.2,10.5,14.1c3.4,5.8,6.4,9.6,10,14.6
			c6.9,9.8,13.3,19,19.1,30C750,378.5,754.4,374.4,748.5,376.6z M804.1,410.3c-10.7-0.9-13.6-6.9-17.5-12.5c-1.7-2.3-2.5-2.7-4.1-5
			c-1.3,0.5-1.7,0.4,2.6-1.7l6.8-2l8.7,6c3.2,2.5,2.7,1.3,4.5,1.3s0.3-0.6,2.1,0.2l3.8,4.2h-6.9C809,408.1,805,401.9,804.1,410.3z
			 M835.3,377.6h-4.1c-0.3-2.5,2-5.4-6.8-5.4l4.1-1.4c-2.2-3.1-1.7-1.5-2.7-5.4c9.8,0.8,0.3,1.9,12.2,6.8
			C835.9,375.3,836.4,373.5,835.3,377.6z M468.9,343.5c1.3,0.5,2.4,0.5,3,0.8l1.8,1.3c0.1-0.2,0.4,0.4,0.6,0.6
			c0.2-8.6,3.9-8.3,4.1-17.7C472.4,330.2,470.7,335.7,468.9,343.5z M302.3,561.9c6.9,6,6,4.1,11.2,12c-5.7,2.8-8.6,2.8-12.2,8.2
			c3.9,1.9,12.2,4.2,12.2,9.5c0,5.3-12.1,17.6-13.6,23.2c13,0,20.9,0.3,31.3,2.7v17.7c5.9-1.6,5.9-4.8,13.6-5.4
			c5.7,11.8,4,26.2,8.2,34.1c9.8-3.5,12.5-17.4,20.4-23.2c4.9,3.3,7.3,9.2,13.6,10.9c0.1-4,1.4-11,2.7-13.6c16.8,3.9,10.3,10.4,30,0
			c-0.7-1.5-5.4-16.1-5.4-17.7c0-3.2,11.3-3.9,17.7-5.4c-7.2-6.2-7.8-5.7-8.2-10.9c8.7-1.8,6.6,2.3,15.3-5.1l13.3-9.9
			c-8.7-2-15.6-1.8-23.2-5.4c2-2.8,4.4-3.8,7.5-6.2l3.7-3.1c3-3.4,1.3,0.1,2.4-4.4c-33,7.7-8.6-12.1-4.1-31.3
			c-9,0.2-27.9,6.2-35.1,6.8l-1.6-16.3c-8.4,0.7-7.9,4.9-15,6.8c-2.6-11.1-9.2-9.6-15.9-11.4c-4.6-1.2-8-7-14.1,4.5
			c-9.6-6.4-4.3-8.8-12.2-10.9c-3.4,2.5-3.9,5.1-4.1,10.9c-6.1-1.4-7.1-2.9-11.3-6.4c-5.2-4.3-14.7-15.1-18.8-15.1
			c0.7,8.3,0.7,12,2.6,20.4c1.3,6.1,3,8.8,3.1,14.7c-7.1,0-8.1-1.5-13.6-2.7c0.8,3,0.4,1.3,2,3.5l1.9,2.2c1.6,2.2,1.8,3,3,5.2h-19.1
			C293.5,555.3,297.9,558.1,302.3,561.9z M342.2,383h-4.1c-0.5-2-0.9-4.2-2-5.5l-3.5-2.7c-1.4,6-3.4,4.9-3.4,9.1
			c0,2.9,0.7,9.9,0.7,14.1c8.5-5.7,6.1-1.8,13-7.5c7.3-6,5.5-4.2,4.7-13C342.9,378.8,343.4,378.3,342.2,383z M229.4,386.1
			c4.1-13.1,9.1-16.3,9.2-23.5c-3.3,2.4-6.5,9.2-8.6,13.2l-8.6,23.7c-1.4,10.2-2.4-2-5,14.5c-0.3,1.8-1.2,5-1.7,7.8
			c-3.7,19.5-3.8,48.1-5.5,60.1c-0.9,5.8,0.1,11.3,6.3,13c0.7-3.2,1.3-4,1.3-8.3l-5.4-1.2c5.1-0.1,3.8,1.2,8.2-4.2
			c0.3-0.3,1-1.2,1.2-1.5c4.6-6.1,1.7-1.6,2-18.7c0.1-6.9,3.2-7.6,4.8-12.5c4.4-13.2,2.4-19.1,2.5-24.8l1.7-18.7l-6.8-10.9l0,0
			C228.2,389.2,227.3,392.7,229.4,386.1z M439.2,598.7l13.3-9.9c-8.7-2-15.6-1.8-23.2-5.4c2-2.8,4.4-3.8,7.5-6.2l3.7-3.1
			c3-3.4,1.3,0.1,2.4-4.4c-33,7.7-8.6-12.1-4.1-31.3c-9,0.2-27.9,6.2-35.1,6.8l-1.6-16.3c-8.4,0.7-7.9,4.9-15,6.8
			c-2.6-11.1-9.2-9.6-15.9-11.4c-4.6-1.2-8-7-14.1,4.5c-9.6-6.4-4.3-8.8-12.2-10.9c-3.4,2.5-3.9,5.1-4.1,10.9
			c-6.1-1.4-7.1-2.9-11.3-6.4c-5.2-4.3-14.7-15.1-18.8-15.1c0.7,8.3,0.7,12,2.6,20.4c1.3,6.1,3,8.8,3.1,14.7
			c-7.1,0-8.1-1.5-13.6-2.7c0.8,3,0.4,1.3,2,3.5l1.9,2.2c1.6,2.2,1.8,3,3,5.2h-19.1c3.1,4.7,7.6,7.4,12,11.2c6.9,6,6,4.1,11.2,12
			c-5.7,2.8-8.6,2.8-12.2,8.2c3.9,1.9,12.2,4.2,12.2,9.5c0,5.3-12.1,17.6-13.6,23.2c13,0,20.9,0.3,31.3,2.7v17.7
			c5.9-1.6,5.9-4.8,13.6-5.4c5.7,11.8,4,26.2,8.2,34.1c9.8-3.5,12.5-17.4,20.4-23.2c4.9,3.3,7.3,9.2,13.6,10.9
			c0.1-4,1.4-11,2.7-13.6c16.8,3.9,10.3,10.4,30,0c-0.7-1.5-5.4-16.1-5.4-17.7c0-3.2,11.3-3.9,17.7-5.4c-7.2-6.2-7.8-5.7-8.2-10.9
			C432.5,602,430.5,606.2,439.2,598.7z M224.9,394L224.9,394c3.2-4.8,2.4-1.3,4.5-7.9c4.1-13.1,9.1-16.3,9.2-23.5
			c-3.3,2.4-6.5,9.2-8.6,13.2l-8.6,23.7c-1.4,10.2-2.4-2-5,14.5c-0.3,1.8-1.2,5-1.7,7.8c-3.7,19.5-3.8,48.1-5.5,60.1
			c-0.9,5.8,0.1,11.3,6.3,13c0.7-3.2,1.3-4,1.3-8.3l-5.4-1.2c5.1-0.1,3.8,1.2,8.2-4.2c0.3-0.3,1-1.2,1.2-1.5c4.6-6.1,1.7-1.6,2-18.7
			c0.1-6.9,3.2-7.6,4.8-12.5c4.4-13.2,2.4-19.1,2.5-24.8l1.7-18.7L224.9,394z M347.6,377.6c-4.7,1.3-4.2,0.7-5.4,5.4h-4.1
			c-0.5-2-0.9-4.2-2-5.5l-3.5-2.7c-1.4,6-3.4,4.9-3.4,9.1c0,2.9,0.7,9.9,0.7,14.1c8.5-5.7,6.1-1.8,13-7.5
			C350.2,384.6,348.4,386.4,347.6,377.6z M468.9,343.5c1.3,0.5,2.4,0.5,3,0.8l1.8,1.3c0.1-0.2,0.4,0.4,0.6,0.6
			c0.2-8.6,3.9-8.3,4.1-17.7C472.4,330.2,470.7,335.7,468.9,343.5z"/>
	</g>
</g>
</svg>
